<svg xmlns="http://www.w3.org/2000/svg">
	<symbol id="outline" viewBox="0 0 24 24">
		<path fill-rule="evenodd" clip-rule="evenodd" d="M11 1C11 0.447715 11.4477 0 12 0H21C22.6568 0 24 1.34315 24 3V21C24 22.6569 22.6568 24 21 24H12C11.4477 24 11 23.5523 11 23C11 22.4477 11.4477 22 12 22H21C21.5523 22 22 21.5523 22 21V3C22 2.44772 21.5523 2 21 2H12C11.4477 2 11 1.55228 11 1Z"/>
		<path fill-rule="evenodd" clip-rule="evenodd" d="M8.99999 13H17V11H8.99999L9 7.73703L2.60554 12L8.99999 16.263L8.99999 13ZM11 9V7.73703C11 6.13964 9.2197 5.18686 7.8906 6.07293L1.49614 10.3359C0.308679 11.1275 0.308678 12.8725 1.49614 13.6641L7.89059 17.9271C9.2197 18.8131 11 17.8604 11 16.263V15H17C18.1046 15 19 14.1046 19 13V11C19 9.89543 18.1046 9 17 9H11Z"/>
	</symbol>
	<symbol id="fill" viewBox="0 0 24 24">
		<path fill-rule="evenodd" clip-rule="evenodd" d="M11 1C11 0.447715 11.4477 0 12 0H21C22.6568 0 24 1.34315 24 3V21C24 22.6569 22.6568 24 21 24H12C11.4477 24 11 23.5523 11 23C11 22.4477 11.4477 22 12 22H21C21.5523 22 22 21.5523 22 21V3C22 2.44772 21.5523 2 21 2H12C11.4477 2 11 1.55228 11 1Z"/>
		<path fill-rule="evenodd" clip-rule="evenodd" d="M11 9V7.73703C11 6.13964 9.2197 5.18686 7.8906 6.07293L1.49614 10.3359C0.308679 11.1275 0.308678 12.8725 1.49614 13.6641L7.89059 17.9271C9.2197 18.8131 11 17.8604 11 16.263V15H17C18.1046 15 19 14.1046 19 13V11C19 9.89543 18.1046 9 17 9H11Z"/>
	</symbol>
</svg>
