<svg xmlns="http://www.w3.org/2000/svg">
	<symbol id="left" viewBox="0 0 24 24">
		<path d="M14.4172 18.7317L8.32125 12.726C8.1097 12.513 8 12.2762 8 12C8 11.7238 8.1097 11.4713 8.32909 11.2661L14.4251 5.26832C14.5975 5.0947 14.8168 5 15.0676 5C15.5926 5 16 5.41037 16 5.93123C16 6.18377 15.8981 6.42841 15.7179 6.60992L10.2331 11.9921L15.7179 17.3901C15.8981 17.5716 16 17.8083 16 18.0688C16 18.5896 15.5926 19 15.0676 19C14.8168 19 14.5975 18.9053 14.4172 18.7317Z"/>
	</symbol>
	<symbol id="right" viewBox="0 0 24 24">
		<path d="M9.58276 5.26832L15.6787 11.274C15.8903 11.487 16 11.7238 16 12C16 12.2762 15.8903 12.5287 15.6709 12.7339L9.57493 18.7317C9.40255 18.9053 9.18315 19 8.93242 19C8.40744 19 8 18.5896 8 18.0688C8 17.8162 8.10186 17.5716 8.28208 17.3901L13.7669 12.0079L8.28208 6.60992C8.10186 6.42841 8 6.19166 8 5.93123C8 5.41037 8.40745 5 8.93242 5C9.18316 5 9.40255 5.0947 9.58276 5.26832Z"/>
	</symbol>
</svg>
