<svg xmlns="http://www.w3.org/2000/svg">
	<symbol id="fishing" viewBox="0 0 24 24">
		<path d="M11.3335 7.51176C9.49071 7.65019 7.71255 8.2505 6.16331 9.25723C6.36589 8.45056 6.79495 7.71854 7.39994 7.14739C8.00493 6.57624 8.76065 6.18975 9.57811 6.03344C9.79442 5.98996 10.0178 5.9958 10.2315 6.05054C10.4452 6.10527 10.6439 6.20749 10.8126 6.34958C10.9813 6.49167 11.1158 6.66996 11.2059 6.87118C11.2961 7.0724 11.3397 7.29136 11.3335 7.51176ZM19.7698 7.49644C19.5277 7.16536 19.2205 6.88709 18.8671 6.67862C18.5137 6.47015 18.1215 6.33585 17.7144 6.28394C17.6625 5.87715 17.5281 5.48522 17.3194 5.13208C17.1108 4.77894 16.8323 4.472 16.501 4.23001C16.3311 4.10224 16.129 4.02426 15.9172 4.00481C15.7054 3.98535 15.4924 4.02519 15.302 4.11987C15.1117 4.21454 14.9514 4.36031 14.8392 4.54084C14.7271 4.72138 14.6674 4.92955 14.667 5.14205V8.66297C9.65544 8.66297 6.796 9.62031 5.30861 12.1233C6.88697 12.5353 8.32679 13.3605 9.4796 14.5139C10.6324 15.6673 11.4565 17.107 11.8669 18.6847C14.3743 17.1991 15.3337 14.3411 15.3337 9.32918H18.8571C19.0698 9.32871 19.2781 9.2691 19.4588 9.15702C19.6394 9.04493 19.7853 8.8848 19.88 8.69455C19.9748 8.50431 20.0147 8.29146 19.9952 8.07985C19.9757 7.86824 19.8977 7.66623 19.7698 7.49644ZM16.8004 12.6602H16.4837C16.3831 13.5629 16.2017 14.4548 15.9417 15.3251H16.4844C18.1424 15.3764 18.6751 12.7428 16.8004 12.6602ZM10.6341 19.263C9.03409 19.7214 6.27598 20.6907 4.7806 19.2084C4.51205 18.9408 4.30396 18.6189 4.17033 18.2643C4.03671 17.9097 3.98064 17.5306 4.0059 17.1525C4.06774 15.8593 4.31032 14.5811 4.72659 13.3551C6.16988 13.6802 7.4912 14.4079 8.53695 15.4538C9.58271 16.4996 10.3099 17.8205 10.6341 19.263ZM7.33336 17.3237C7.33336 17.147 7.26312 16.9775 7.13809 16.8526C7.01306 16.7277 6.84348 16.6575 6.66667 16.6575C6.48985 16.6575 6.32027 16.7277 6.19524 16.8526C6.07021 16.9775 5.99997 17.147 5.99997 17.3237C5.99997 17.5004 6.07021 17.6698 6.19524 17.7948C6.32027 17.9197 6.48985 17.9899 6.66667 17.9899C6.84348 17.9899 7.01306 17.9197 7.13809 17.7948C7.26312 17.6698 7.33336 17.5004 7.33336 17.3237Z"/>
	</symbol>
	<symbol id="sport-hall" viewBox="0 0 24 24">
		<path fill-rule="evenodd" clip-rule="evenodd" d="M19.0603 9.56468L18.7995 9.77881L18.7912 10.1188C18.7842 10.4034 18.7651 10.7041 18.732 11.0217C18.6041 12.2498 18.3805 13.5559 18.0565 14.7421C17.7339 15.9232 17.3116 16.9855 16.7848 17.7335L16.7785 17.7425L16.7724 17.7516C16.6521 17.9337 16.5112 18.1008 16.3531 18.2495L16.3483 18.2539L16.3437 18.2584C16.1394 18.4574 15.9222 18.6113 15.6917 18.7119L15.6781 18.7178L15.6648 18.7243C15.3012 18.9009 14.8935 19 14.4629 19C13.3129 19 12.3269 18.2943 11.9059 17.2878L11.7091 16.8172L11.205 16.8392C11.1522 16.8415 11.0991 16.8426 11.0456 16.8426C9.42863 16.8426 8.05945 15.7753 7.59035 14.3009L7.44803 13.8536L6.98768 13.7957C5.30193 13.5838 4 12.131 4 10.3752C4 8.47348 5.5268 6.92806 7.41482 6.92806C8.84185 6.92806 10.0637 7.8111 10.5746 9.06571L10.7513 9.4995L11.214 9.52075C12.403 9.57536 13.4427 10.2076 14.0651 11.1481L14.6933 12.0976L15.2874 11.1258C15.4639 10.8372 15.6274 10.534 15.7784 10.2239L16.0084 9.75195L15.6423 9.37852C15.4776 9.21053 15.3353 9.0191 15.2207 8.80853C14.941 8.29473 14.8447 7.70209 14.9437 7.12907C14.9488 7.09972 14.9572 7.07881 14.9656 7.06357C14.9741 7.04801 14.985 7.03419 14.9986 7.0218L15.2811 6.7632L15.2323 6.38064C15.23 6.36274 15.2305 6.34536 15.234 6.32807C15.2374 6.31111 15.2444 6.28969 15.2595 6.2639C15.5526 5.76271 16.0072 5.37432 16.5512 5.1665C17.1641 4.93235 17.8427 4.94561 18.4462 5.20349C19.0495 5.46135 19.5307 5.94372 19.7906 6.5498C20.0504 7.15583 20.0691 7.83949 19.843 8.45907C19.684 8.89489 19.4123 9.27571 19.0603 9.56468Z"/>
	</symbol>
	<symbol id="drugs" viewBox="0 0 24 24">
		<path fill-rule="evenodd" clip-rule="evenodd" d="M7.91663 0.0699222C7.76411 0.28382 7.25082 1.48064 6.97928 2.25548C6.01121 5.01784 5.87313 7.41777 6.54387 9.82201C6.59994 10.023 6.64584 10.1976 6.64584 10.2099C6.64584 10.2223 6.5496 10.107 6.43193 9.95385C5.46883 8.69969 4.23526 7.71967 2.47532 6.81043C1.56679 6.34106 0.0830327 5.74019 0.00533144 5.81016C-0.0610514 5.86993 0.505946 7.05378 0.955766 7.79476C2.08247 9.65069 3.31652 10.8936 4.97051 11.8382L5.27444 12.0117L5.10084 11.9929C3.90987 11.8635 2.51059 12.02 1.14287 12.4355C0.631073 12.591 0.631108 12.6179 1.14356 12.8492C2.13639 13.2973 3.27306 13.6001 4.31966 13.6951C5.23531 13.7783 6.35215 13.6467 7.37435 13.3353L7.61797 13.2611V14.4596C7.61797 15.2326 7.63113 15.6893 7.65502 15.746C7.77824 16.0389 8.17872 16.091 8.35107 15.8365C8.41193 15.7466 8.41627 15.6582 8.41637 14.498L8.41651 13.2558L8.59042 13.3175C8.8605 13.4134 9.50246 13.5598 9.96151 13.6303C11.0541 13.7981 12.1709 13.7205 13.3686 13.3937C14.1212 13.1883 15.3256 12.7103 15.3256 12.617C15.3256 12.4956 13.9474 12.143 12.987 12.0189C12.4524 11.9498 11.651 11.928 11.2162 11.9707C11.0087 11.9911 10.8328 12.0021 10.825 11.9952C10.8174 11.9883 10.9011 11.9325 11.0112 11.8713C12.6921 10.937 14.0022 9.60168 15.1437 7.6589C15.5703 6.93298 16.0596 5.86887 15.9941 5.80981C15.912 5.73597 14.2136 6.43097 13.3466 6.89312C12.3093 7.44612 11.5265 7.98224 10.7927 8.64229C10.2818 9.10188 9.92349 9.48438 9.56162 9.95669C9.43652 10.1199 9.35368 10.2052 9.36431 10.1599C9.37434 10.1169 9.4385 9.86369 9.50683 9.59717C10.0417 7.51106 9.99349 5.60211 9.34764 3.29778C9.08555 2.36262 8.69569 1.32499 8.27923 0.454138C8.04592 -0.0337443 8.01436 -0.067164 7.91663 0.0699222Z"/>
	</symbol>
</svg>
