<svg xmlns="http://www.w3.org/2000/svg">
	<symbol id="open" viewBox="0 0 24 24">
		<path d="M23.2708 9.41879C21.7198 6.89279 18.1918 2.65479 11.9998 2.65479C5.80781 2.65479 2.27981 6.89279 0.728807 9.41879C0.249335 10.1943 -0.00463867 11.088 -0.00463867 11.9998C-0.00463867 12.9115 0.249335 13.8053 0.728807 14.5808C2.27981 17.1068 5.80781 21.3448 11.9998 21.3448C18.1918 21.3448 21.7198 17.1068 23.2708 14.5808C23.7503 13.8053 24.0043 12.9115 24.0043 11.9998C24.0043 11.088 23.7503 10.1943 23.2708 9.41879V9.41879ZM21.5658 13.5338C20.2338 15.6998 17.2188 19.3448 11.9998 19.3448C6.78081 19.3448 3.76581 15.6998 2.43381 13.5338C2.14894 13.0728 1.99806 12.5417 1.99806 11.9998C1.99806 11.4579 2.14894 10.9267 2.43381 10.4658C3.76581 8.29979 6.78081 4.65479 11.9998 4.65479C17.2188 4.65479 20.2338 8.29578 21.5658 10.4658C21.8507 10.9267 22.0016 11.4579 22.0016 11.9998C22.0016 12.5417 21.8507 13.0728 21.5658 13.5338V13.5338Z"/>
		<path d="M11.9998 6.99976C11.0109 6.99976 10.0442 7.293 9.22191 7.84241C8.39966 8.39181 7.7588 9.17271 7.38036 10.0863C7.00192 11 6.90291 12.0053 7.09583 12.9752C7.28876 13.9451 7.76496 14.836 8.46422 15.5353C9.16349 16.2346 10.0544 16.7108 11.0243 16.9037C11.9942 17.0966 12.9995 16.9976 13.9132 16.6192C14.8268 16.2407 15.6077 15.5999 16.1571 14.7776C16.7065 13.9554 16.9998 12.9887 16.9998 11.9998C16.9982 10.6742 16.4709 9.40331 15.5335 8.46598C14.5962 7.52864 13.3254 7.00134 11.9998 6.99976V6.99976ZM11.9998 14.9998C11.4064 14.9998 10.8264 14.8238 10.333 14.4942C9.8397 14.1645 9.45518 13.696 9.22812 13.1478C9.00106 12.5996 8.94165 11.9964 9.0574 11.4145C9.17316 10.8325 9.45888 10.298 9.87844 9.87844C10.298 9.45888 10.8325 9.17316 11.4145 9.0574C11.9964 8.94164 12.5996 9.00105 13.1478 9.22812C13.696 9.45518 14.1645 9.8397 14.4942 10.333C14.8238 10.8264 14.9998 11.4064 14.9998 11.9998C14.9998 12.7954 14.6837 13.5585 14.1211 14.1211C13.5585 14.6837 12.7954 14.9998 11.9998 14.9998Z"/>
	</symbol>
	<symbol id="closed" viewBox="0 0 24 24">
		<path d="M23.2708 9.41885C22.3681 7.94057 21.2293 6.6201 19.8998 5.50985L22.6998 2.70985C22.882 2.52125 22.9828 2.26864 22.9805 2.00645C22.9782 1.74425 22.873 1.49344 22.6876 1.30803C22.5022 1.12262 22.2514 1.01745 21.9892 1.01517C21.727 1.0129 21.4744 1.11369 21.2858 1.29585L18.2408 4.34485C16.3532 3.22367 14.1952 2.63931 11.9998 2.65485C5.80881 2.65485 2.28081 6.89285 0.728807 9.41885C0.249335 10.1944 -0.00463867 11.0881 -0.00463867 11.9998C-0.00463867 12.9116 0.249335 13.8053 0.728807 14.5808C1.63156 16.0591 2.7703 17.3796 4.09981 18.4898L1.29981 21.2899C1.2043 21.3821 1.12811 21.4924 1.07571 21.6144C1.0233 21.7364 0.99571 21.8677 0.994557 22.0004C0.993403 22.1332 1.0187 22.2649 1.06899 22.3878C1.11927 22.5107 1.19352 22.6224 1.28741 22.7162C1.3813 22.8101 1.49296 22.8844 1.61585 22.9347C1.73875 22.985 1.87043 23.0103 2.00321 23.0091C2.13599 23.0079 2.26721 22.9804 2.38921 22.9279C2.51122 22.8755 2.62156 22.7994 2.71381 22.7038L5.76581 19.6518C7.65107 20.7728 9.80648 21.3582 11.9998 21.3448C18.1908 21.3448 21.7188 17.1068 23.2708 14.5808C23.7503 13.8053 24.0043 12.9116 24.0043 11.9998C24.0043 11.0881 23.7503 10.1944 23.2708 9.41885V9.41885ZM2.43281 13.5338C2.14794 13.0729 1.99706 12.5417 1.99706 11.9998C1.99706 11.458 2.14794 10.9268 2.43281 10.4658C3.76681 8.29985 6.78181 4.65485 11.9998 4.65485C13.6601 4.64555 15.297 5.04569 16.7658 5.81985L14.7528 7.83285C13.7927 7.19545 12.6417 6.90985 11.495 7.02449C10.3484 7.13914 9.27667 7.64699 8.46181 8.46185C7.64695 9.27671 7.1391 10.3484 7.02445 11.4951C6.9098 12.6418 7.19541 13.7928 7.83281 14.7528L5.52281 17.0628C4.29791 16.0726 3.25264 14.8788 2.43281 13.5338V13.5338ZM14.9998 11.9998C14.9998 12.7955 14.6837 13.5586 14.1211 14.1212C13.5585 14.6838 12.7955 14.9998 11.9998 14.9998C11.5543 14.9981 11.115 14.8956 10.7148 14.6998L14.6998 10.7148C14.8955 11.115 14.9981 11.5544 14.9998 11.9998V11.9998ZM8.99981 11.9998C8.99981 11.2042 9.31588 10.4411 9.87849 9.87853C10.4411 9.31592 11.2042 8.99985 11.9998 8.99985C12.4453 9.00157 12.8846 9.10414 13.2848 9.29985L9.29981 13.2848C9.1041 12.8847 9.00153 12.4453 8.99981 11.9998ZM21.5668 13.5338C20.2328 15.6998 17.2178 19.3448 11.9998 19.3448C10.3395 19.3542 8.70257 18.954 7.23381 18.1798L9.24681 16.1668C10.2069 16.8042 11.3579 17.0899 12.5046 16.9752C13.6512 16.8606 14.7229 16.3527 15.5378 15.5378C16.3527 14.723 16.8605 13.6513 16.9752 12.5046C17.0898 11.3579 16.8042 10.2069 16.1668 9.24685L18.4768 6.93685C19.7017 7.92713 20.747 9.1209 21.5668 10.4658C21.8517 10.9268 22.0026 11.458 22.0026 11.9998C22.0026 12.5417 21.8517 13.0729 21.5668 13.5338V13.5338Z"/>
	</symbol>
</svg>
