<svg xmlns="http://www.w3.org/2000/svg">
	<symbol id="fishNotData" viewBox="0 0 24 24">
		<path fill-rule="evenodd" clip-rule="evenodd" d="M12 22C17.5228 22 22 17.5228 22 12C22 6.47715 17.5228 2 12 2C6.47715 2 2 6.47715 2 12C2 17.5228 6.47715 22 12 22ZM12 24C18.6274 24 24 18.6274 24 12C24 5.37258 18.6274 0 12 0C5.37258 0 0 5.37258 0 12C0 18.6274 5.37258 24 12 24Z"/>
		<path d="M10.3388 8.5V12H9.34879V10.635H7.99879V12H7.00879V8.5H7.99879V9.815H9.34879V8.5H10.3388Z"/>
		<path d="M13.9008 11.235V12H11.0908V8.5H13.8358V9.265H12.0708V9.855H13.6258V10.595H12.0708V11.235H13.9008Z"/>
		<path d="M17.2848 9.285H16.2148V12H15.2398V9.285H14.1648V8.5H17.2848V9.285Z"/>
		<path d="M6.89624 14.604V15.435H6.44624V15H4.96424V15.435H4.51424L4.51724 14.604H4.60124C4.72724 14.6 4.81624 14.508 4.86824 14.328C4.92024 14.148 4.95224 13.891 4.96424 13.557L4.98824 12.9H6.60224V14.604H6.89624ZM5.39324 13.602C5.38324 13.852 5.36224 14.062 5.33024 14.232C5.29824 14.4 5.24924 14.524 5.18324 14.604H6.12224V13.296H5.40224L5.39324 13.602Z"/>
		<path d="M8.66298 14.55H7.68798L7.50198 15H7.00398L7.93998 12.9H8.41998L9.35898 15H8.84898L8.66298 14.55ZM8.50998 14.181L8.17698 13.377L7.84398 14.181H8.50998Z"/>
		<path d="M11.5635 12.9V15H11.0775V14.139H10.1235V15H9.63746V12.9H10.1235V13.728H11.0775V12.9H11.5635Z"/>
		<path d="M14.0156 12.9V15H13.5296V14.139H12.5756V15H12.0896V12.9H12.5756V13.728H13.5296V12.9H14.0156Z"/>
		<path d="M15.5588 13.59C15.8148 13.59 16.0108 13.647 16.1468 13.761C16.2848 13.875 16.3538 14.044 16.3538 14.268C16.3538 14.506 16.2778 14.688 16.1258 14.814C15.9758 14.938 15.7638 15 15.4898 15H14.5418V12.9H15.0248V13.59H15.5588ZM15.4628 14.64C15.5888 14.64 15.6868 14.609 15.7568 14.547C15.8288 14.485 15.8648 14.395 15.8648 14.277C15.8648 14.059 15.7308 13.95 15.4628 13.95H15.0248V14.64H15.4628ZM16.6208 12.9H17.1038V15H16.6208V12.9Z"/>
		<path d="M18.0047 12.9L18.4397 13.536L18.8747 12.9H19.4447L18.7457 13.905L19.5017 15H18.9287L18.4397 14.304L17.9567 15H17.3957L18.1457 13.926L17.4437 12.9H18.0047Z"/>
	</symbol>
</svg>
