<svg xmlns="http://www.w3.org/2000/svg">
	<symbol id="outline" viewBox="0 0 24 24">
		<path d="M6.00001 19C6.00001 19.2652 5.89466 19.5195 5.70712 19.7071C5.51958 19.8946 5.26523 20 5.00001 20C4.7348 20 4.48044 19.8946 4.29291 19.7071C4.10537 19.5195 4.00001 19.2652 4.00001 19C4.00001 18.7348 4.10537 18.4804 4.29291 18.2929C4.48044 18.1053 4.7348 18 5.00001 18C5.26523 18 5.51958 18.1053 5.70712 18.2929C5.89466 18.4804 6.00001 18.7348 6.00001 19ZM23.73 7.62497C23.5235 8.03933 23.2053 8.38768 22.8112 8.63066C22.4171 8.87364 21.963 9.00156 21.5 8.99997H16.981C16.961 10.061 16.918 11.071 16.832 12H17.2C17.6026 11.9919 18.0021 12.0725 18.37 12.236C18.738 12.3996 19.0655 12.642 19.3294 12.9462C19.5932 13.2504 19.7869 13.6089 19.8968 13.9963C20.0066 14.3837 20.0299 14.7906 19.965 15.188C19.8512 15.9663 19.4621 16.6779 18.8683 17.1939C18.2746 17.7098 17.5156 17.9958 16.729 18H15.4C13.6 21.889 8.00001 24 3.98701 24C3.44124 23.9981 2.90162 23.8846 2.40136 23.6663C1.90111 23.4481 1.45081 23.1298 1.07817 22.731C0.705535 22.3323 0.418447 21.8614 0.234577 21.3476C0.0507069 20.8337 -0.0260555 20.2876 0.00901416 19.743C0.0623506 17.0847 0.744645 14.4768 2.00001 12.133V11.6C2.00642 9.80169 2.64138 8.06224 3.79499 6.68273C4.9486 5.30322 6.54824 4.37048 8.31701 4.04597C8.76484 3.96949 9.22398 3.99189 9.66224 4.1116C10.1005 4.23131 10.5073 4.44544 10.854 4.73897C11.209 5.03719 11.4952 5.4087 11.693 5.82798C11.8908 6.24726 11.9955 6.70439 12 7.16797C12.93 7.08197 13.941 7.03897 15 7.01897V2.49997C15 2.03569 15.1293 1.58058 15.3734 1.18564C15.6175 0.790701 15.9667 0.471533 16.382 0.263901C16.7972 0.0562685 17.2621 -0.0316245 17.7245 0.0100705C18.1869 0.0517654 18.6286 0.221401 19 0.499969C19.8969 1.15251 20.5437 2.09217 20.833 3.16297C21.9058 3.45247 22.8471 4.1008 23.5 4.99997C23.779 5.3727 23.9483 5.81592 23.9889 6.27971C24.0296 6.74349 23.9399 7.2094 23.73 7.62497ZM4.38501 9.54097C6.07062 8.41753 7.99161 7.696 10 7.43197V7.19997C10 7.02213 9.96108 6.84644 9.88593 6.68525C9.81078 6.52407 9.70124 6.3813 9.56501 6.26697C9.44335 6.16038 9.29938 6.08234 9.14366 6.03856C8.98794 5.99479 8.8244 5.98639 8.66501 6.01397C7.70732 6.18105 6.80941 6.59392 6.05917 7.21217C5.30893 7.83042 4.73206 8.63286 4.38501 9.54097ZM8.78301 21.2C8.43991 19.7459 7.69831 18.4163 6.64147 17.3603C5.58462 16.3043 4.25436 15.5639 2.80001 15.222C2.35072 16.7377 2.08219 18.3012 2.00001 19.88C1.98246 20.1629 2.02527 20.4464 2.1256 20.7116C2.22593 20.9767 2.38149 21.2175 2.58196 21.418C2.78244 21.6185 3.02324 21.7741 3.28841 21.8744C3.55358 21.9747 3.83704 22.0175 4.12001 22C5.70049 21.9185 7.26574 21.6499 8.78301 21.2ZM14.992 9.00797C8.75301 9.11497 5.35301 10.272 3.59201 13.37C5.27596 13.8304 6.81085 14.7216 8.04536 15.956C9.27988 17.1903 10.1714 18.7251 10.632 20.409C13.728 18.646 14.885 15.247 14.992 9.00797ZM16.568 14C16.4563 14.6743 16.3077 15.3419 16.123 16H16.729C17.0353 15.9985 17.3309 15.8873 17.5622 15.6866C17.7935 15.4859 17.9453 15.209 17.99 14.906C18.0138 14.792 18.0108 14.674 17.9813 14.5614C17.9518 14.4487 17.8967 14.3444 17.8202 14.2567C17.7436 14.1689 17.6478 14.1 17.5402 14.0555C17.4326 14.011 17.3162 13.992 17.2 14H16.568ZM21.9 6.18897C21.6573 5.85836 21.3492 5.58122 20.9948 5.37478C20.6404 5.16834 20.2473 5.03701 19.84 4.98897C19.6347 4.95458 19.4453 4.85699 19.2982 4.70982C19.151 4.56266 19.0534 4.37324 19.019 4.16797C18.9711 3.76063 18.8398 3.36751 18.6334 3.01311C18.4269 2.6587 18.1497 2.35059 17.819 2.10797C17.7435 2.04934 17.6529 2.01356 17.5577 2.00487C17.4625 1.99619 17.3668 2.01496 17.282 2.05897C17.1971 2.09698 17.1252 2.15898 17.0751 2.23733C17.025 2.31568 16.9989 2.40697 17 2.49997V6.99997H21.5C21.5927 7.00264 21.6841 6.97824 21.7632 6.92975C21.8422 6.88127 21.9054 6.8108 21.945 6.72697C21.9898 6.64239 22.0093 6.54674 22.0014 6.45137C21.9934 6.35601 21.9582 6.26494 21.9 6.18897Z"/>
	</symbol>
	<symbol id="fill" viewBox="0 0 24 24">
		<path d="M10.9998 5.27126C8.23575 5.47904 5.56861 6.38013 3.24485 7.89126C3.54871 6.68042 4.19226 5.58164 5.09971 4.72432C6.00716 3.86701 7.14071 3.28688 8.36685 3.05226C8.6913 2.98699 9.0263 2.99576 9.34689 3.07792C9.66748 3.16008 9.96541 3.31351 10.2185 3.52679C10.4715 3.74007 10.6732 4.00769 10.8085 4.30973C10.9438 4.61177 11.0092 4.94044 10.9998 5.27126ZM23.6538 5.24826C23.2906 4.75131 22.8299 4.33361 22.2998 4.02069C21.7697 3.70777 21.1814 3.50619 20.5708 3.42826C20.4929 2.81766 20.2913 2.22936 19.9784 1.69929C19.6655 1.16921 19.2478 0.70849 18.7508 0.345257C18.496 0.153466 18.1928 0.0364157 17.8751 0.00721508C17.5575 -0.0219855 17.238 0.0378167 16.9524 0.179924C16.6669 0.322031 16.4265 0.540832 16.2583 0.811822C16.09 1.08281 16.0005 1.39529 15.9998 1.71426V6.99926C8.48285 6.99926 4.19385 8.43626 1.96285 12.1933C4.3303 12.8117 6.48994 14.0504 8.21909 15.7816C9.94825 17.5129 11.1843 19.6741 11.7998 22.0423C15.5608 19.8123 16.9998 15.5223 16.9998 7.99926H22.2848C22.6038 7.99856 22.9163 7.90908 23.1873 7.74084C23.4583 7.57259 23.6771 7.33223 23.8192 7.04667C23.9613 6.7611 24.0211 6.44161 23.9919 6.12398C23.9627 5.80635 23.8456 5.50312 23.6538 5.24826ZM19.1999 12.9993H18.7248C18.574 14.3542 18.3019 15.6929 17.9118 16.9993H18.7258C21.2128 17.0763 22.0119 13.1233 19.1999 12.9993ZM9.95085 22.9103C7.55085 23.5983 3.41385 25.0533 1.17085 22.8283C0.768045 22.4267 0.455926 21.9435 0.255491 21.4112C0.0550564 20.8788 -0.0290439 20.3098 0.0088488 19.7423C0.101606 17.8011 0.465465 15.8825 1.08985 14.0423C3.2547 14.5302 5.2366 15.6226 6.80517 17.1924C8.37375 18.7623 9.46457 20.745 9.95085 22.9103ZM4.99985 19.9993C4.99985 19.734 4.89449 19.4797 4.70696 19.2921C4.51942 19.1046 4.26507 18.9993 3.99985 18.9993C3.73463 18.9993 3.48028 19.1046 3.29274 19.2921C3.10521 19.4797 2.99985 19.734 2.99985 19.9993C2.99985 20.2645 3.10521 20.5188 3.29274 20.7064C3.48028 20.8939 3.73463 20.9993 3.99985 20.9993C4.26507 20.9993 4.51942 20.8939 4.70696 20.7064C4.89449 20.5188 4.99985 20.2645 4.99985 19.9993Z"/>
	</symbol>
</svg>
