<svg xmlns="http://www.w3.org/2000/svg">
	<symbol id="outline" viewBox="0 0 24 24">
		<path d="M12 0C9.62662 0 7.30654 0.703788 5.33315 2.02236C3.35976 3.34094 1.82169 5.21509 0.913443 7.4078C0.0051918 9.60051 -0.232448 12.0133 0.230574 14.3411C0.693597 16.6689 1.83649 18.8071 3.51472 20.4853C5.19295 22.1635 7.33114 23.3064 9.65891 23.7694C11.9867 24.2324 14.3995 23.9948 16.5922 23.0866C18.7849 22.1783 20.6591 20.6402 21.9776 18.6668C23.2962 16.6935 24 14.3734 24 12C23.9966 8.81846 22.7312 5.76821 20.4815 3.51852C18.2318 1.26883 15.1815 0.00344108 12 0V0ZM12 22C10.0222 22 8.08879 21.4135 6.4443 20.3147C4.7998 19.2159 3.51808 17.6541 2.7612 15.8268C2.00433 13.9996 1.80629 11.9889 2.19215 10.0491C2.578 8.10929 3.5304 6.32746 4.92893 4.92893C6.32746 3.53041 8.10929 2.578 10.0491 2.19215C11.9889 1.8063 13.9996 2.00433 15.8268 2.7612C17.6541 3.51808 19.2159 4.79981 20.3147 6.4443C21.4135 8.08879 22 10.0222 22 12C21.9971 14.6513 20.9426 17.1931 19.0679 19.0679C17.1931 20.9426 14.6513 21.9971 12 22Z"/>
		<path d="M11.9998 10.0003H10.9998C10.7346 10.0003 10.4803 10.1057 10.2927 10.2932C10.1052 10.4807 9.99984 10.7351 9.99984 11.0003C9.99984 11.2655 10.1052 11.5199 10.2927 11.7074C10.4803 11.8949 10.7346 12.0003 10.9998 12.0003H11.9998V18.0003C11.9998 18.2655 12.1052 18.5199 12.2927 18.7074C12.4803 18.8949 12.7346 19.0003 12.9998 19.0003C13.2651 19.0003 13.5194 18.8949 13.7069 18.7074C13.8945 18.5199 13.9998 18.2655 13.9998 18.0003V12.0003C13.9998 11.4699 13.7891 10.9612 13.414 10.5861C13.039 10.211 12.5303 10.0003 11.9998 10.0003Z"/>
		<path d="M12 7.99969C12.8284 7.99969 13.5 7.32812 13.5 6.49969C13.5 5.67127 12.8284 4.99969 12 4.99969C11.1716 4.99969 10.5 5.67127 10.5 6.49969C10.5 7.32812 11.1716 7.99969 12 7.99969Z"/>
	</symbol>
	<symbol id="fill" viewBox="0 0 24 24">
		<path d="M12 24C14.3734 24 16.6935 23.2962 18.6668 21.9776C20.6402 20.6591 22.1783 18.7849 23.0866 16.5922C23.9948 14.3995 24.2324 11.9867 23.7694 9.65892C23.3064 7.33115 22.1635 5.19295 20.4853 3.51472C18.8071 1.83649 16.6689 0.693605 14.3411 0.230582C12.0133 -0.232441 9.60051 0.00519943 7.4078 0.913451C5.21509 1.8217 3.34094 3.35977 2.02236 5.33316C0.703788 7.30655 0 9.62663 0 12C0.00344108 15.1815 1.26883 18.2318 3.51852 20.4815C5.76821 22.7312 8.81846 23.9966 12 24ZM12 5.00001C12.2967 5.00001 12.5867 5.08798 12.8334 5.2528C13.08 5.41762 13.2723 5.65189 13.3858 5.92598C13.4994 6.20007 13.5291 6.50167 13.4712 6.79264C13.4133 7.08361 13.2704 7.35089 13.0607 7.56067C12.8509 7.77044 12.5836 7.91331 12.2926 7.97118C12.0017 8.02906 11.7001 7.99936 11.426 7.88582C11.1519 7.77229 10.9176 7.58003 10.7528 7.33336C10.588 7.08669 10.5 6.79668 10.5 6.50001C10.5 6.10218 10.658 5.72065 10.9393 5.43934C11.2206 5.15804 11.6022 5.00001 12 5.00001ZM11 10H12C12.5304 10 13.0391 10.2107 13.4142 10.5858C13.7893 10.9609 14 11.4696 14 12V18C14 18.2652 13.8946 18.5196 13.7071 18.7071C13.5196 18.8946 13.2652 19 13 19C12.7348 19 12.4804 18.8946 12.2929 18.7071C12.1054 18.5196 12 18.2652 12 18V12H11C10.7348 12 10.4804 11.8946 10.2929 11.7071C10.1054 11.5196 10 11.2652 10 11C10 10.7348 10.1054 10.4804 10.2929 10.2929C10.4804 10.1054 10.7348 10 11 10Z"/>
	</symbol>
</svg>
