<svg xmlns="http://www.w3.org/2000/svg">
	<symbol id="outline" viewBox="0 0 24 24">
		<path d="M19 5.99968H13V2.99968C13 2.73446 12.8946 2.48011 12.7071 2.29257C12.5196 2.10504 12.2652 1.99968 12 1.99968C11.7348 1.99968 11.4804 2.10504 11.2929 2.29257C11.1053 2.48011 11 2.73446 11 2.99968V5.99968H4.99999C3.6744 6.00127 2.40355 6.52856 1.46621 7.4659C0.528874 8.40324 0.00158023 9.67408 -7.62939e-06 10.9997L-7.62939e-06 14.9997C0.00158023 16.3253 0.528874 17.5961 1.46621 18.5335C2.40355 19.4708 3.6744 19.9981 4.99999 19.9997H19C20.3256 19.9981 21.5964 19.4708 22.5338 18.5335C23.4711 17.5961 23.9984 16.3253 24 14.9997V10.9997C23.9984 9.67408 23.4711 8.40324 22.5338 7.4659C21.5964 6.52856 20.3256 6.00127 19 5.99968ZM22 14.9997C22 15.7953 21.6839 16.5584 21.1213 17.121C20.5587 17.6836 19.7956 17.9997 19 17.9997H4.99999C4.20434 17.9997 3.44128 17.6836 2.87867 17.121C2.31606 16.5584 1.99999 15.7953 1.99999 14.9997V10.9997C1.99999 10.204 2.31606 9.44097 2.87867 8.87836C3.44128 8.31575 4.20434 7.99968 4.99999 7.99968H19C19.7956 7.99968 20.5587 8.31575 21.1213 8.87836C21.6839 9.44097 22 10.204 22 10.9997V14.9997Z"/>
		<path d="M15.0001 13.9997H9.00014C8.73493 13.9997 8.48057 14.105 8.29304 14.2926C8.1055 14.4801 8.00014 14.7345 8.00014 14.9997C8.00014 15.2649 8.1055 15.5193 8.29304 15.7068C8.48057 15.8943 8.73493 15.9997 9.00014 15.9997H15.0001C15.2653 15.9997 15.5197 15.8943 15.7072 15.7068C15.8948 15.5193 16.0001 15.2649 16.0001 14.9997C16.0001 14.7345 15.8948 14.4801 15.7072 14.2926C15.5197 14.105 15.2653 13.9997 15.0001 13.9997Z"/>
		<path d="M10 12.0003H11C11.2652 12.0003 11.5196 11.8949 11.7071 11.7074C11.8946 11.5199 12 11.2655 12 11.0003C12 10.7351 11.8946 10.4807 11.7071 10.2932C11.5196 10.1057 11.2652 10.0003 11 10.0003H10C9.73478 10.0003 9.48043 10.1057 9.29289 10.2932C9.10536 10.4807 9 10.7351 9 11.0003C9 11.2655 9.10536 11.5199 9.29289 11.7074C9.48043 11.8949 9.73478 12.0003 10 12.0003Z"/>
		<path d="M19.0001 10.0003H15.0001C14.7349 10.0003 14.4806 10.1057 14.293 10.2932C14.1055 10.4807 14.0001 10.7351 14.0001 11.0003C14.0001 11.2655 14.1055 11.5199 14.293 11.7074C14.4806 11.8949 14.7349 12.0003 15.0001 12.0003H19.0001C19.2654 12.0003 19.5197 11.8949 19.7073 11.7074C19.8948 11.5199 20.0001 11.2655 20.0001 11.0003C20.0001 10.7351 19.8948 10.4807 19.7073 10.2932C19.5197 10.1057 19.2654 10.0003 19.0001 10.0003Z"/>
		<path d="M6.00008 10.0003H5.00008C4.73486 10.0003 4.48051 10.1057 4.29297 10.2932C4.10543 10.4807 4.00008 10.7351 4.00008 11.0003C4.00008 11.2655 4.10543 11.5199 4.29297 11.7074C4.48051 11.8949 4.73486 12.0003 5.00008 12.0003H6.00008C6.26529 12.0003 6.51965 11.8949 6.70718 11.7074C6.89472 11.5199 7.00008 11.2655 7.00008 11.0003C7.00008 10.7351 6.89472 10.4807 6.70718 10.2932C6.51965 10.1057 6.26529 10.0003 6.00008 10.0003Z"/>
		<path d="M5.00007 15.9997C5.55236 15.9997 6.00007 15.552 6.00007 14.9997C6.00007 14.4474 5.55236 13.9997 5.00007 13.9997C4.44779 13.9997 4.00008 14.4474 4.00008 14.9997C4.00008 15.552 4.44779 15.9997 5.00007 15.9997Z"/>
		<path d="M19 15.9997C19.5523 15.9997 20 15.552 20 14.9997C20 14.4474 19.5523 13.9997 19 13.9997C18.4477 13.9997 18 14.4474 18 14.9997C18 15.552 18.4477 15.9997 19 15.9997Z"/>
	</symbol>
	<symbol id="fill" viewBox="0 0 24 24">
		<path d="M19 5.99968H13V2.99968C13 2.73446 12.8946 2.48011 12.7071 2.29257C12.5196 2.10504 12.2652 1.99968 12 1.99968C11.7348 1.99968 11.4804 2.10504 11.2929 2.29257C11.1053 2.48011 11 2.73446 11 2.99968V5.99968H4.99999C3.6744 6.00127 2.40355 6.52856 1.46621 7.4659C0.528874 8.40324 0.00158023 9.67408 -7.62939e-06 10.9997L-7.62939e-06 14.9997C0.00158023 16.3253 0.528874 17.5961 1.46621 18.5335C2.40355 19.4708 3.6744 19.9981 4.99999 19.9997H19C20.3256 19.9981 21.5964 19.4708 22.5338 18.5335C23.4711 17.5961 23.9984 16.3253 24 14.9997V10.9997C23.9984 9.67408 23.4711 8.40324 22.5338 7.4659C21.5964 6.52856 20.3256 6.00127 19 5.99968ZM9.99999 9.99968H11C11.2652 9.99968 11.5196 10.105 11.7071 10.2926C11.8946 10.4801 12 10.7345 12 10.9997C12 11.2649 11.8946 11.5192 11.7071 11.7068C11.5196 11.8943 11.2652 11.9997 11 11.9997H9.99999C9.73478 11.9997 9.48042 11.8943 9.29289 11.7068C9.10535 11.5192 8.99999 11.2649 8.99999 10.9997C8.99999 10.7345 9.10535 10.4801 9.29289 10.2926C9.48042 10.105 9.73478 9.99968 9.99999 9.99968ZM4.99999 15.9997C4.80221 15.9997 4.60887 15.941 4.44442 15.8311C4.27997 15.7213 4.1518 15.5651 4.07611 15.3824C4.00043 15.1996 3.98062 14.9986 4.01921 14.8046C4.05779 14.6106 4.15303 14.4324 4.29289 14.2926C4.43274 14.1527 4.61092 14.0575 4.8049 14.0189C4.99888 13.9803 5.19995 14.0001 5.38268 14.0758C5.5654 14.1515 5.72158 14.2797 5.83146 14.4441C5.94134 14.6086 5.99999 14.8019 5.99999 14.9997C5.99999 15.2649 5.89464 15.5192 5.7071 15.7068C5.51956 15.8943 5.26521 15.9997 4.99999 15.9997ZM5.99999 11.9997H4.99999C4.73478 11.9997 4.48042 11.8943 4.29289 11.7068C4.10535 11.5192 3.99999 11.2649 3.99999 10.9997C3.99999 10.7345 4.10535 10.4801 4.29289 10.2926C4.48042 10.105 4.73478 9.99968 4.99999 9.99968H5.99999C6.26521 9.99968 6.51956 10.105 6.7071 10.2926C6.89464 10.4801 6.99999 10.7345 6.99999 10.9997C6.99999 11.2649 6.89464 11.5192 6.7071 11.7068C6.51956 11.8943 6.26521 11.9997 5.99999 11.9997ZM15 15.9997H8.99999C8.73478 15.9997 8.48042 15.8943 8.29289 15.7068C8.10535 15.5192 7.99999 15.2649 7.99999 14.9997C7.99999 14.7345 8.10535 14.4801 8.29289 14.2926C8.48042 14.105 8.73478 13.9997 8.99999 13.9997H15C15.2652 13.9997 15.5196 14.105 15.7071 14.2926C15.8946 14.4801 16 14.7345 16 14.9997C16 15.2649 15.8946 15.5192 15.7071 15.7068C15.5196 15.8943 15.2652 15.9997 15 15.9997ZM19 15.9997C18.8022 15.9997 18.6089 15.941 18.4444 15.8311C18.28 15.7213 18.1518 15.5651 18.0761 15.3824C18.0004 15.1996 17.9806 14.9986 18.0192 14.8046C18.0578 14.6106 18.153 14.4324 18.2929 14.2926C18.4327 14.1527 18.6109 14.0575 18.8049 14.0189C18.9989 13.9803 19.1999 14.0001 19.3827 14.0758C19.5654 14.1515 19.7216 14.2797 19.8315 14.4441C19.9413 14.6086 20 14.8019 20 14.9997C20 15.2649 19.8946 15.5192 19.7071 15.7068C19.5196 15.8943 19.2652 15.9997 19 15.9997ZM19 11.9997H15C14.7348 11.9997 14.4804 11.8943 14.2929 11.7068C14.1053 11.5192 14 11.2649 14 10.9997C14 10.7345 14.1053 10.4801 14.2929 10.2926C14.4804 10.105 14.7348 9.99968 15 9.99968H19C19.2652 9.99968 19.5196 10.105 19.7071 10.2926C19.8946 10.4801 20 10.7345 20 10.9997C20 11.2649 19.8946 11.5192 19.7071 11.7068C19.5196 11.8943 19.2652 11.9997 19 11.9997Z"/>
	</symbol>
</svg>
