<svg xmlns="http://www.w3.org/2000/svg">
	<symbol id="outline" viewBox="0 0 24 24">
		<path d="M9.25714 6.62706C9.25714 6.37644 8.99738 6.21202 8.77963 6.3361C6.81224 7.45712 5.48571 9.57365 5.48571 12C5.48571 15.5977 8.40226 18.5143 12 18.5143C15.5977 18.5143 18.5143 15.5977 18.5143 12C18.5143 9.57365 17.1878 7.45712 15.2204 6.3361C15.0026 6.21202 14.7429 6.37644 14.7429 6.62706V8.31935C14.7429 8.42485 14.792 8.52387 14.8726 8.5919C15.8416 9.40951 16.4571 10.6329 16.4571 12C16.4571 14.4616 14.4616 16.4571 12 16.4571C9.53839 16.4571 7.54286 14.4616 7.54286 12C7.54286 10.6329 8.15837 9.40951 9.12739 8.5919C9.20803 8.52387 9.25714 8.42485 9.25714 8.31935V6.62706Z"/>
		<path d="M13.0286 5.14286C13.0286 4.57479 12.5681 4.11429 12 4.11429C11.4319 4.11429 10.9714 4.57479 10.9714 5.14286V12C10.9714 12.5681 11.4319 13.0286 12 13.0286C12.5681 13.0286 13.0286 12.5681 13.0286 12V5.14286Z"/>
		<path fill-rule="evenodd" clip-rule="evenodd" d="M0 12C0 5.37258 5.37258 0 12 0C18.6274 0 24 5.37258 24 12C24 18.6274 18.6274 24 12 24C5.37258 24 0 18.6274 0 12ZM12 2.05714C6.50871 2.05714 2.05714 6.50871 2.05714 12C2.05714 17.4913 6.50871 21.9429 12 21.9429C17.4913 21.9429 21.9429 17.4913 21.9429 12C21.9429 6.50871 17.4913 2.05714 12 2.05714Z"/>
	</symbol>
	<symbol id="fill" viewBox="0 0 24 24">
		<path fill-rule="evenodd" clip-rule="evenodd" d="M0 12C0 5.37258 5.37258 0 12 0C18.6274 0 24 5.37258 24 12C24 18.6274 18.6274 24 12 24C5.37258 24 0 18.6274 0 12ZM12 4.11429C12.5681 4.11429 13.0286 4.57479 13.0286 5.14286V12C13.0286 12.5681 12.5681 13.0286 12 13.0286C11.4319 13.0286 10.9714 12.5681 10.9714 12V5.14286C10.9714 4.57479 11.4319 4.11429 12 4.11429ZM9.25714 6.62706C9.25714 6.37644 8.99738 6.21202 8.77963 6.3361C6.81224 7.45712 5.48571 9.57365 5.48571 12C5.48571 15.5977 8.40226 18.5143 12 18.5143C15.5977 18.5143 18.5143 15.5977 18.5143 12C18.5143 9.57365 17.1878 7.45712 15.2204 6.3361C15.0026 6.21202 14.7429 6.37644 14.7429 6.62706V8.31935C14.7429 8.42485 14.792 8.52387 14.8726 8.5919C15.8416 9.40951 16.4571 10.6329 16.4571 12C16.4571 14.4616 14.4616 16.4571 12 16.4571C9.53839 16.4571 7.54286 14.4616 7.54286 12C7.54286 10.6329 8.15837 9.40951 9.12739 8.5919C9.20803 8.52387 9.25714 8.42485 9.25714 8.31935V6.62706Z"/>
	</symbol>
</svg>
