<svg xmlns="http://www.w3.org/2000/svg">
	<symbol id="outline" viewBox="0 0 24 24">
		<path fill-rule="evenodd" clip-rule="evenodd" d="M13 3C13 2.44772 12.5523 2 12 2C11.4477 2 11 2.44772 11 3V3.03561C11 4.19358 10.2703 5.13662 9.32044 5.53062C8.36262 5.92791 7.18264 5.76842 6.36835 4.95414L6.34315 4.92893C5.95263 4.53841 5.31946 4.53841 4.92894 4.92893C4.53841 5.31946 4.53841 5.95262 4.92894 6.34315L4.95414 6.36835C5.76843 7.18264 5.92791 8.36261 5.53062 9.32043C5.13662 10.2703 4.19358 11 3.03561 11H3C2.44772 11 2 11.4477 2 12C2 12.5523 2.44772 13 3 13H3.0356C4.19358 13 5.13662 13.7297 5.53062 14.6796C5.92792 15.6374 5.76843 16.8174 4.95414 17.6317L4.92894 17.6569C4.53841 18.0474 4.53841 18.6805 4.92894 19.0711C5.31946 19.4616 5.95263 19.4616 6.34315 19.0711L6.36836 19.0459C7.18265 18.2316 8.36262 18.0721 9.32044 18.4694C10.2703 18.8634 11 19.8064 11 20.9644V21C11 21.5523 11.4477 22 12 22C12.5523 22 13 21.5523 13 21V20.9644C13 19.8064 13.7297 18.8634 14.6796 18.4694C15.6374 18.0721 16.8174 18.2316 17.6317 19.0459L17.6569 19.0711C18.0474 19.4616 18.6805 19.4616 19.0711 19.0711C19.4616 18.6805 19.4616 18.0474 19.0711 17.6569L19.0459 17.6316C18.2316 16.8174 18.0721 15.6374 18.4694 14.6796C18.8634 13.7297 19.8064 13 20.9644 13H21C21.5523 13 22 12.5523 22 12C22 11.4477 21.5523 11 21 11H20.9644C19.8064 11 18.8634 10.2703 18.4694 9.32044C18.0721 8.36262 18.2316 7.18265 19.0459 6.36836L19.0711 6.34315C19.4616 5.95262 19.4616 5.31946 19.0711 4.92894C18.6805 4.53841 18.0474 4.53841 17.6569 4.92894L17.6317 4.95414C16.8174 5.76843 15.6374 5.92791 14.6796 5.53062C13.7297 5.13662 13 4.19358 13 3.0356V3ZM14.9988 1.93014C14.962 0.857922 14.0812 0 13 0H11C9.91882 0 9.03801 0.857915 9.0012 1.93013C9.00082 1.94108 9.00054 1.95205 9.00034 1.96304C9.00011 1.97533 9 1.98765 9 2V3.03561C9 3.32118 8.81795 3.57382 8.55416 3.68324C8.29022 3.79272 7.98462 3.74198 7.78257 3.53992L7.05026 2.80761C7.04147 2.79883 7.03262 2.79014 7.02372 2.78155C7.01586 2.77397 7.00795 2.76647 7 2.75905C6.2158 2.02691 4.98634 2.0431 4.22183 2.80761L2.80762 4.22183C2.0431 4.98634 2.02692 6.2158 2.75906 7C2.76648 7.00795 2.77398 7.01586 2.78156 7.02371C2.79014 7.03262 2.79883 7.04147 2.80762 7.05025L3.53992 7.78256C3.74198 7.98462 3.79272 8.29022 3.68324 8.55416C3.57382 8.81794 3.32118 9 3.03561 9H2C1.98766 9 1.97534 9.00011 1.96304 9.00034C1.95205 9.00054 1.94108 9.00082 1.93013 9.0012C0.857917 9.03801 0 9.91882 0 11V13C0 14.0812 0.857922 14.962 1.93014 14.9988C1.94109 14.9992 1.95206 14.9995 1.96305 14.9997C1.97534 14.9999 1.98766 15 2 15H3.0356C3.32118 15 3.57382 15.1821 3.68324 15.4458C3.79272 15.7098 3.74198 16.0154 3.53992 16.2174L2.80762 16.9498C2.79884 16.9585 2.79015 16.9674 2.78156 16.9763C2.77399 16.9841 2.76649 16.992 2.75906 17C2.02692 17.7842 2.04311 19.0137 2.80762 19.7782L4.22183 21.1924C4.98634 21.9569 6.2158 21.9731 7 21.241C7.00795 21.2335 7.01586 21.226 7.02372 21.2185C7.03262 21.2099 7.04147 21.2012 7.05026 21.1924L7.78257 20.4601C7.98462 20.258 8.29022 20.2073 8.55416 20.3168C8.81795 20.4262 9 20.6788 9 20.9644V22C9 22.0123 9.00011 22.0247 9.00034 22.037C9.00054 22.048 9.00082 22.0589 9.0012 22.0699C9.03802 23.1421 9.91882 24 11 24H13C14.0812 24 14.962 23.1421 14.9988 22.0699C14.9992 22.0589 14.9995 22.0479 14.9997 22.037C14.9999 22.0247 15 22.0123 15 22V20.9644C15 20.6788 15.1821 20.4262 15.4458 20.3168C15.7098 20.2073 16.0154 20.258 16.2174 20.4601L16.9498 21.1924C16.9585 21.2012 16.9674 21.2099 16.9763 21.2184C16.9841 21.226 16.992 21.2335 17 21.2409C17.7842 21.9731 19.0137 21.9569 19.7782 21.1924L21.1924 19.7782C21.9569 19.0137 21.9731 17.7842 21.241 17C21.2335 16.992 21.226 16.9841 21.2184 16.9763C21.2099 16.9674 21.2012 16.9585 21.1924 16.9497L20.4601 16.2174C20.258 16.0154 20.2073 15.7098 20.3168 15.4458C20.4262 15.1821 20.6788 15 20.9644 15H22C22.0123 15 22.0247 14.9999 22.037 14.9997C22.048 14.9995 22.0589 14.9992 22.0699 14.9988C23.1421 14.962 24 14.0812 24 13V11C24 9.91882 23.1421 9.03802 22.0699 9.0012C22.0589 9.00082 22.048 9.00054 22.037 9.00034C22.0247 9.00011 22.0123 9 22 9H20.9644C20.6788 9 20.4262 8.81795 20.3168 8.55416C20.2073 8.29022 20.258 7.98462 20.4601 7.78257L21.1924 7.05026C21.2012 7.04147 21.2099 7.03262 21.2185 7.02372C21.226 7.01586 21.2335 7.00795 21.241 7C21.9731 6.2158 21.9569 4.98634 21.1924 4.22183L19.7782 2.80762C19.0137 2.0431 17.7842 2.02692 17 2.75906C16.992 2.76649 16.9841 2.77399 16.9763 2.78156C16.9674 2.79015 16.9585 2.79883 16.9498 2.80762L16.2174 3.53992C16.0154 3.74198 15.7098 3.79272 15.4458 3.68324C15.1821 3.57382 15 3.32118 15 3.0356V2C15 1.98766 14.9999 1.97534 14.9997 1.96305C14.9995 1.95206 14.9992 1.94109 14.9988 1.93014ZM17 12C17 14.7614 14.7614 17 12 17C9.23858 17 7 14.7614 7 12C7 9.23858 9.23858 7 12 7C14.7614 7 17 9.23858 17 12ZM15 12C15 13.6569 13.6569 15 12 15C10.3431 15 9 13.6569 9 12C9 10.3431 10.3431 9 12 9C13.6569 9 15 10.3431 15 12Z"/>
	</symbol>
	<symbol id="fill" viewBox="0 0 24 24">
		<path fill-rule="evenodd" clip-rule="evenodd" d="M14.9988 1.93014C14.962 0.857922 14.0812 0 13 0H11C9.91882 0 9.03801 0.857915 9.0012 1.93013C9.00082 1.94108 9.00054 1.95205 9.00034 1.96304C9.00011 1.97533 9 1.98765 9 2V3.03561C9 3.32118 8.81795 3.57382 8.55416 3.68324C8.29022 3.79272 7.98462 3.74198 7.78257 3.53992L7.05026 2.80761C7.04147 2.79883 7.03262 2.79014 7.02372 2.78155C7.01586 2.77397 7.00795 2.76647 7 2.75905C6.2158 2.02691 4.98634 2.0431 4.22183 2.80761L2.80762 4.22183C2.0431 4.98634 2.02692 6.2158 2.75906 7C2.76648 7.00795 2.77398 7.01586 2.78156 7.02371C2.79014 7.03262 2.79883 7.04147 2.80762 7.05025L3.53992 7.78256C3.74198 7.98462 3.79272 8.29022 3.68324 8.55416C3.57382 8.81794 3.32118 9 3.03561 9H2C1.98766 9 1.97534 9.00011 1.96304 9.00034C1.95205 9.00054 1.94108 9.00082 1.93013 9.0012C0.857917 9.03801 0 9.91882 0 11V13C0 14.0812 0.857922 14.962 1.93014 14.9988C1.94109 14.9992 1.95206 14.9995 1.96305 14.9997C1.97534 14.9999 1.98766 15 2 15H3.0356C3.32118 15 3.57382 15.1821 3.68324 15.4458C3.79272 15.7098 3.74198 16.0154 3.53992 16.2174L2.80762 16.9498C2.79884 16.9585 2.79015 16.9674 2.78156 16.9763C2.77399 16.9841 2.76649 16.992 2.75906 17C2.02692 17.7842 2.04311 19.0137 2.80762 19.7782L4.22183 21.1924C4.98634 21.9569 6.2158 21.9731 7 21.241C7.00795 21.2335 7.01586 21.226 7.02372 21.2185C7.03262 21.2099 7.04147 21.2012 7.05026 21.1924L7.78257 20.4601C7.98462 20.258 8.29022 20.2073 8.55416 20.3168C8.81795 20.4262 9 20.6788 9 20.9644V22C9 22.0123 9.00011 22.0247 9.00034 22.037C9.00054 22.048 9.00082 22.0589 9.0012 22.0699C9.03802 23.1421 9.91882 24 11 24H13C14.0812 24 14.962 23.1421 14.9988 22.0699C14.9992 22.0589 14.9995 22.0479 14.9997 22.037C14.9999 22.0247 15 22.0123 15 22V20.9644C15 20.6788 15.1821 20.4262 15.4458 20.3168C15.7098 20.2073 16.0154 20.258 16.2174 20.4601L16.9498 21.1924C16.9585 21.2012 16.9674 21.2099 16.9763 21.2184C16.9841 21.226 16.992 21.2335 17 21.2409C17.7842 21.9731 19.0137 21.9569 19.7782 21.1924L21.1924 19.7782C21.9569 19.0137 21.9731 17.7842 21.241 17C21.2335 16.992 21.226 16.9841 21.2184 16.9763C21.2099 16.9674 21.2012 16.9585 21.1924 16.9497L20.4601 16.2174C20.258 16.0154 20.2073 15.7098 20.3168 15.4458C20.4262 15.1821 20.6788 15 20.9644 15H22C22.0123 15 22.0247 14.9999 22.037 14.9997C22.048 14.9995 22.0589 14.9992 22.0699 14.9988C23.1421 14.962 24 14.0812 24 13V11C24 9.91882 23.1421 9.03802 22.0699 9.0012C22.0589 9.00082 22.048 9.00054 22.037 9.00034C22.0247 9.00011 22.0123 9 22 9H20.9644C20.6788 9 20.4262 8.81795 20.3168 8.55416C20.2073 8.29022 20.258 7.98462 20.4601 7.78257L21.1924 7.05026C21.2012 7.04147 21.2099 7.03262 21.2185 7.02372C21.226 7.01586 21.2335 7.00795 21.241 7C21.9731 6.2158 21.9569 4.98634 21.1924 4.22183L19.7782 2.80762C19.0137 2.0431 17.7842 2.02692 17 2.75906C16.992 2.76649 16.9841 2.77399 16.9763 2.78156C16.9674 2.79015 16.9585 2.79883 16.9498 2.80762L16.2174 3.53992C16.0154 3.74198 15.7098 3.79272 15.4458 3.68324C15.1821 3.57382 15 3.32118 15 3.0356V2C15 1.98766 14.9999 1.97534 14.9997 1.96305C14.9995 1.95206 14.9992 1.94109 14.9988 1.93014ZM17 12C17 14.7614 14.7614 17 12 17C9.23858 17 7 14.7614 7 12C7 9.23858 9.23858 7 12 7C14.7614 7 17 9.23858 17 12ZM15 12C15 13.6569 13.6569 15 12 15C10.3431 15 9 13.6569 9 12C9 10.3431 10.3431 9 12 9C13.6569 9 15 10.3431 15 12Z"/>
	</symbol>
</svg>
