

<svg xmlns="http://www.w3.org/2000/svg">
	<symbol id="outline" viewBox="0 0 24 24">
		<path d="M6.00001 19C6.00001 19.2652 5.89466 19.5195 5.70712 19.7071C5.51958 19.8946 5.26523 20 5.00001 20C4.7348 20 4.48044 19.8946 4.29291 19.7071C4.10537 19.5195 4.00001 19.2652 4.00001 19C4.00001 18.7348 4.10537 18.4804 4.29291 18.2929C4.48044 18.1053 4.7348 18 5.00001 18C5.26523 18 5.51958 18.1053 5.70712 18.2929C5.89466 18.4804 6.00001 18.7348 6.00001 19ZM23.73 7.62497C23.5235 8.03933 23.2053 8.38768 22.8112 8.63066C22.4171 8.87364 21.963 9.00156 21.5 8.99997H16.981C16.961 10.061 16.918 11.071 16.832 12C16.3986 15.4323 16.1685 16.137 15.4 18C13.6 21.889 8.00001 24 3.98701 24C3.44124 23.9981 2.90162 23.8846 2.40136 23.6663C1.90111 23.4481 1.45081 23.1298 1.07817 22.731C0.705535 22.3323 0.418447 21.8614 0.234577 21.3476C0.0507069 20.8337 -0.0260555 20.2876 0.00901416 19.743C0.0623506 17.0847 0.744645 14.4768 2.00001 12.133V11.6C2.00642 9.80169 2.64138 8.06224 3.79499 6.68273C4.9486 5.30322 6.54824 4.37048 8.31701 4.04597C8.76484 3.96949 9.22398 3.99189 9.66224 4.1116C10.1005 4.23131 10.5073 4.44544 10.854 4.73897C11.209 5.03719 11.4952 5.4087 11.693 5.82798C11.8908 6.24726 11.9955 6.70439 12 7.16797C12.93 7.08197 13.941 7.03897 15 7.01897V2.49997C15 2.03569 15.1293 1.58058 15.3734 1.18564C15.6175 0.790701 15.9667 0.471533 16.382 0.263901C16.7972 0.0562685 17.2621 -0.0316245 17.7245 0.0100705C18.1869 0.0517654 18.6286 0.221401 19 0.499969C19.8969 1.15251 20.5437 2.09217 20.833 3.16297C21.9058 3.45247 22.8471 4.1008 23.5 4.99997C23.779 5.3727 23.9483 5.81592 23.9889 6.27971C24.0296 6.74349 23.9399 7.2094 23.73 7.62497ZM4.38501 9.54097C6.07062 8.41753 7.99161 7.696 10 7.43197V7.19997C10 7.02213 9.96108 6.84644 9.88593 6.68525C9.81078 6.52407 9.70124 6.3813 9.56501 6.26697C9.44334 6.16038 9.29938 6.08234 9.14366 6.03856C8.98794 5.99479 8.8244 5.98639 8.66501 6.01397C7.70732 6.18105 6.80941 6.59392 6.05917 7.21217C5.30893 7.83042 4.73206 8.63286 4.38501 9.54097ZM8.78301 21.2C8.43991 19.7459 7.69831 18.4163 6.64147 17.3603C5.58462 16.3043 4.25436 15.5639 2.80001 15.222C2.35072 16.7377 2.08219 18.3012 2.00001 19.88C1.98246 20.1629 2.02527 20.4464 2.1256 20.7116C2.22593 20.9767 2.38149 21.2175 2.58196 21.418C2.78244 21.6185 3.02324 21.7741 3.28841 21.8744C3.55358 21.9747 3.83704 22.0175 4.12001 22C5.70049 21.9185 7.26574 21.6499 8.78301 21.2ZM14.992 9.00797C8.75301 9.11497 5.35301 10.272 3.59201 13.37C5.27596 13.8304 6.81085 14.7216 8.04536 15.956C9.27988 17.1903 10.1714 18.7251 10.632 20.409C13.728 18.646 14.885 15.247 14.992 9.00797ZM21.9 6.18897C21.6573 5.85836 21.3492 5.58122 20.9948 5.37478C20.6404 5.16834 20.2473 5.03701 19.84 4.98897C19.6347 4.95458 19.4453 4.85699 19.2982 4.70982C19.151 4.56266 19.0534 4.37324 19.019 4.16797C18.9711 3.76063 18.8398 3.36751 18.6334 3.01311C18.4269 2.6587 18.1497 2.35059 17.819 2.10797C17.7435 2.04934 17.6529 2.01356 17.5577 2.00487C17.4625 1.99619 17.3668 2.01496 17.282 2.05897C17.1971 2.09698 17.1252 2.15898 17.0751 2.23733C17.025 2.31568 16.9989 2.40697 17 2.49997V6.99997H21.5C21.5927 7.00264 21.6841 6.97824 21.7632 6.92975C21.8422 6.88127 21.9054 6.8108 21.945 6.72697C21.9898 6.64239 22.0093 6.54674 22.0014 6.45137C21.9934 6.35601 21.9582 6.26494 21.9 6.18897Z"/>
		<path fill-rule="evenodd" clip-rule="evenodd" d="M11.3069 20.0636L11.9652 20.6452C12.3749 21.0073 12.9961 20.9772 13.3691 20.5832L13.3804 20.5711L13.3929 20.5571L13.7398 20.1646C13.8355 20.0563 13.9881 20.0212 14.1248 20.0682C14.2614 20.1152 14.3611 20.2371 14.37 20.3812L14.4023 20.904L14.4036 20.9226L14.4051 20.9392C14.4571 21.4793 14.9285 21.8849 15.4742 21.8512L16.4838 21.7888C17.0296 21.7551 17.4475 21.2946 17.4326 20.7522L17.432 20.7356L17.431 20.7169L17.3988 20.1942C17.3898 20.05 17.4739 19.9168 17.6036 19.8534C17.7334 19.7899 17.8893 19.8059 17.9976 19.9016L18.3901 20.2485L18.4043 20.2608L18.4169 20.2714C18.8356 20.6166 19.4557 20.5701 19.8178 20.1603L20.4876 19.4023C20.8497 18.9926 20.8195 18.3715 20.4255 17.9984L20.4134 17.9872L20.3994 17.9746L20.007 17.6278C19.8987 17.5321 19.8635 17.3794 19.9106 17.2427C19.9576 17.1062 20.0794 17.0064 20.2236 16.9975L20.7463 16.9652L20.765 16.9639L20.7816 16.9624C21.3217 16.9104 21.7273 16.4391 21.6936 15.8933L21.6312 14.8837C21.5975 14.338 21.137 13.9201 20.5946 13.9349L20.578 13.9355L20.5593 13.9365L20.0365 13.9688C19.8924 13.9777 19.7592 13.8937 19.6957 13.7639C19.6322 13.6341 19.6483 13.4783 19.744 13.37L20.0908 12.9775L20.1032 12.9633L20.1138 12.9506C20.4589 12.5319 20.4124 11.9118 20.0027 11.5497L19.2447 10.8799C18.835 10.5178 18.2138 10.548 17.8408 10.942L17.8295 10.9541L17.817 10.9681L17.4701 11.3606C17.3744 11.4689 17.2218 11.504 17.0851 11.457C16.9485 11.41 16.8488 11.2881 16.8399 11.144L16.8076 10.6212L16.8063 10.6026L16.8048 10.586C16.7528 10.0459 16.2814 9.64027 15.7357 9.67398L15.3694 9.6966C15.3186 10.7318 15.1808 12.0128 14.9149 13.3293C15.0858 13.281 15.2645 13.2501 15.4491 13.2387C16.843 13.1526 18.0428 14.2128 18.1289 15.6067C18.215 17.0006 17.1547 18.2004 15.7608 18.2865C14.9003 18.3397 14.1138 17.9559 13.6176 17.3265C13.0351 18.4973 12.2789 19.4814 11.3069 20.0636ZM14.1328 16.1309C14.3062 16.8273 14.9565 17.3228 15.6985 17.2769C16.5348 17.2253 17.171 16.5054 17.1193 15.6691C17.0677 14.8327 16.3478 14.1966 15.5114 14.2482C15.1672 14.2695 14.857 14.4039 14.6146 14.6131C14.4764 15.1282 14.3167 15.6383 14.1328 16.1309Z"/>
	</symbol>
	<symbol id="fill" viewBox="0 0 24 24">
		<path d="M11.0003 5.27145C8.23606 5.47925 5.56882 6.38037 3.24497 7.89155C3.54884 6.68067 4.19242 5.58185 5.0999 4.7245C6.00739 3.86716 7.14098 3.287 8.36716 3.05237C8.69163 2.9871 9.02664 2.99587 9.34724 3.07804C9.66785 3.1602 9.96578 3.31364 10.2189 3.52692C10.4719 3.74021 10.6736 4.00784 10.8089 4.30989C10.9442 4.61194 11.0096 4.94062 11.0003 5.27145ZM23.6547 5.24845C23.2915 4.75148 22.8307 4.33378 22.3007 4.02084C21.7706 3.70791 21.1822 3.50632 20.5716 3.42839C20.4937 2.81777 20.2921 2.22945 19.9792 1.69935C19.6662 1.16926 19.2485 0.708517 18.7516 0.34527C18.4967 0.153472 18.1934 0.036417 17.8758 0.00721535C17.5581 -0.0219863 17.2387 0.0378181 16.9531 0.179931C16.6675 0.322043 16.4271 0.540852 16.2589 0.811852C16.0906 1.08285 16.0011 1.39534 16.0004 1.71432V6.99952C8.48317 6.99952 4.19401 8.43657 1.96292 12.1937C4.33046 12.8122 6.49018 14.0509 8.2194 15.7822C9.94862 17.5136 11.1847 19.6748 11.8003 22.0431C15.5614 19.813 17.0005 15.5228 17.0005 7.99956H22.2857C22.6047 7.99886 22.9172 7.90938 23.1882 7.74113C23.4592 7.57288 23.678 7.3325 23.8201 7.04693C23.9622 6.76135 24.022 6.44185 23.9928 6.12421C23.9636 5.80657 23.8465 5.50333 23.6547 5.24845ZM9.95122 22.9111C7.55113 23.5991 3.41398 25.0542 1.17089 22.8291C0.768074 22.4275 0.455943 21.9443 0.255501 21.412C0.0550585 20.8796 -0.029045 20.3105 0.00884913 19.743C0.101609 17.8018 0.465483 15.8831 1.08989 14.0428C3.25483 14.5308 5.2368 15.6232 6.80543 17.1931C8.37406 18.763 9.46492 20.7458 9.95122 22.9111ZM5.00004 20C5.00004 19.7348 4.89468 19.4804 4.70713 19.2929C4.51959 19.1053 4.26523 19 4 19C3.73477 19 3.48041 19.1053 3.29287 19.2929C3.10532 19.4804 2.99996 19.7348 2.99996 20C2.99996 20.2652 3.10532 20.5196 3.29287 20.7071C3.48041 20.8947 3.73477 21 4 21C4.26523 21 4.51959 20.8947 4.70713 20.7071C4.89468 20.5196 5.00004 20.2652 5.00004 20Z"/>
		<path fill-rule="evenodd" clip-rule="evenodd" d="M16.849 10.5977C16.7847 10.0589 16.3042 9.66417 15.7593 9.71034L14.7514 9.79574C14.2066 9.84191 13.7994 10.3119 13.8266 10.8538C13.8269 10.8593 13.8272 10.8648 13.8276 10.8704C13.828 10.8766 13.8284 10.8828 13.829 10.889L13.8732 11.4109C13.8854 11.5548 13.8044 11.6899 13.6762 11.7563C13.5478 11.8228 13.3917 11.8102 13.2812 11.7171L12.8809 11.3793C12.8761 11.3752 12.8713 11.3712 12.8664 11.3673C12.8621 11.3638 12.8578 11.3604 12.8535 11.357C12.427 11.0215 11.8082 11.0821 11.4555 11.5001L10.8032 12.2731C10.4506 12.6911 10.495 13.3113 10.8974 13.6752C10.9015 13.6789 10.9056 13.6826 10.9098 13.6862C10.9145 13.6904 10.9192 13.6944 10.924 13.6985L11.3243 14.0363C11.4348 14.1295 11.4734 14.2813 11.4295 14.419C11.3856 14.5566 11.2661 14.6591 11.1222 14.6713L10.6003 14.7155C10.5941 14.7161 10.5879 14.7167 10.5817 14.7173C10.5761 14.7179 10.5706 14.7185 10.5651 14.7191C10.0264 14.7835 9.63164 15.264 9.67781 15.8088L9.76322 16.8167C9.80939 17.3616 10.2793 17.7688 10.8212 17.7416C10.8268 17.7413 10.8323 17.741 10.8379 17.7406C10.8441 17.7402 10.8503 17.7397 10.8565 17.7392L11.3784 17.695C11.5223 17.6828 11.6574 17.7637 11.7238 17.892C11.7902 18.0203 11.7777 18.1765 11.6845 18.287L11.3468 18.6873C11.3427 18.6921 11.3387 18.6969 11.3348 18.7018C11.3313 18.706 11.3278 18.7103 11.3244 18.7147C10.989 19.1411 11.0496 19.76 11.4675 20.1126L12.2406 20.7649C12.6585 21.1175 13.2788 21.0732 13.6427 20.6708C13.6464 20.6667 13.6501 20.6626 13.6537 20.6584C13.6578 20.6537 13.6619 20.6489 13.666 20.6441L14.0037 20.2438C14.0969 20.1334 14.2488 20.0948 14.3865 20.1387C14.5241 20.1825 14.6266 20.3021 14.6388 20.446L14.683 20.9679C14.6835 20.9741 14.6841 20.9803 14.6848 20.9865C14.6853 20.992 14.6859 20.9975 14.6866 21.003C14.7509 21.5418 15.2315 21.9365 15.7763 21.8904L16.7842 21.8049C17.329 21.7588 17.7363 21.2888 17.709 20.7469C17.7088 20.7414 17.7084 20.7358 17.7081 20.7303C17.7077 20.7241 17.7072 20.7179 17.7067 20.7117L17.6624 20.1898C17.6503 20.0459 17.7312 19.9108 17.8595 19.8444C17.9878 19.7779 18.144 19.7904 18.2544 19.8836L18.6547 20.2214C18.6595 20.2255 18.6644 20.2295 18.6692 20.2334C18.6735 20.2369 18.6778 20.2403 18.6821 20.2437C19.1086 20.5792 19.7275 20.5185 20.0801 20.1006L20.7324 19.3276C21.085 18.9096 21.0407 18.2894 20.6382 17.9254C20.6341 17.9218 20.63 17.9181 20.6259 17.9145C20.6212 17.9103 20.6164 17.9062 20.6116 17.9022L20.2113 17.5644C20.1008 17.4712 20.0622 17.3194 20.1061 17.1817C20.15 17.0441 20.2695 16.9416 20.4135 16.9294L20.9353 16.8851C20.9416 16.8846 20.9478 16.884 20.954 16.8834C20.9595 16.8828 20.965 16.8822 20.9705 16.8816C21.5093 16.8172 21.904 16.3367 21.8578 15.7919L21.7724 14.784C21.7262 14.2391 21.2563 13.8319 20.7144 13.8591C20.7089 13.8594 20.7033 13.8597 20.6978 13.8601C20.6916 13.8605 20.6854 13.861 20.6791 13.8615L20.1572 13.9057C20.0133 13.9179 19.8782 13.837 19.8118 13.7087C19.7454 13.5804 19.7579 13.4242 19.8511 13.3137L20.1889 12.9134C20.1929 12.9086 20.1969 12.9038 20.2009 12.8989C20.2044 12.8947 20.2078 12.8903 20.2112 12.886C20.5467 12.4596 20.486 11.8407 20.0681 11.4881L19.295 10.8358C18.8771 10.4831 18.2568 10.5275 17.8929 10.9299C17.8892 10.934 17.8856 10.9381 17.8819 10.9423C17.8778 10.947 17.8737 10.9518 17.8697 10.9566L17.5319 11.3569C17.4387 11.4673 17.2869 11.5059 17.1492 11.462C17.0116 11.4182 16.909 11.2986 16.8968 11.1547L16.8526 10.6328C16.8521 10.6266 16.8515 10.6204 16.8509 10.6142C16.8503 10.6087 16.8497 10.6032 16.849 10.5977ZM18.2875 15.5868C18.4054 16.9784 17.3729 18.2021 15.9813 18.3201C14.5897 18.438 13.366 17.4055 13.2481 16.0139C13.1302 14.6223 14.1627 13.3986 15.5543 13.2806C16.9459 13.1627 18.1696 14.1952 18.2875 15.5868ZM17.2796 15.6722C17.3504 16.5072 16.7309 17.2414 15.8959 17.3122C15.061 17.3829 14.3267 16.7634 14.256 15.9285C14.1852 15.0935 14.8048 14.3593 15.6397 14.2885C16.4747 14.2178 17.2089 14.8373 17.2796 15.6722Z"/>
	</symbol>
</svg>
