<svg xmlns="http://www.w3.org/2000/svg">
	<symbol id="settings" viewBox="0 0 24 24">
		<path fill-rule="evenodd" clip-rule="evenodd" d="M12 4C11.4477 4 11 4.44772 11 5V5.12824C11 5.67931 10.597 6.13875 10.0751 6.31545C9.8227 6.40087 9.57787 6.50263 9.34184 6.61946C8.8479 6.86395 8.23807 6.82385 7.84836 6.43414L7.75737 6.34315C7.36684 5.95262 6.73368 5.95262 6.34315 6.34315C5.95263 6.73367 5.95263 7.36684 6.34315 7.75736L6.43415 7.84835C6.82386 8.23806 6.86396 8.84789 6.61947 9.34183C6.50263 9.57787 6.40087 9.82269 6.31545 10.0751C6.13875 10.597 5.67931 11 5.12824 11H5C4.44772 11 4 11.4477 4 12C4 12.5523 4.44772 13 5 13H5.12824C5.67931 13 6.13875 13.403 6.31545 13.9249C6.40087 14.1773 6.50264 14.4221 6.61947 14.6582C6.86396 15.1521 6.82386 15.7619 6.43415 16.1517L6.34317 16.2426C5.95264 16.6332 5.95264 17.2663 6.34317 17.6569C6.73369 18.0474 7.36686 18.0474 7.75738 17.6569L7.84837 17.5659C8.23808 17.1762 8.84791 17.1361 9.34184 17.3805C9.57788 17.4974 9.8227 17.5991 10.0751 17.6846C10.597 17.8612 11 18.3207 11 18.8718V19C11 19.5523 11.4477 20 12 20C12.5523 20 13 19.5523 13 19V18.8718C13 18.3207 13.403 17.8612 13.9249 17.6846C14.1773 17.5991 14.4221 17.4974 14.6582 17.3805C15.1521 17.136 15.7619 17.1761 16.1517 17.5659L16.2426 17.6569C16.6332 18.0474 17.2663 18.0474 17.6569 17.6569C18.0474 17.2663 18.0474 16.6332 17.6569 16.2426L17.5659 16.1516C17.1762 15.7619 17.1361 15.1521 17.3805 14.6582C17.4974 14.4221 17.5991 14.1773 17.6846 13.9249C17.8612 13.403 18.3207 13 18.8718 13H19C19.5523 13 20 12.5523 20 12C20 11.4477 19.5523 11 19 11H18.8718C18.3207 11 17.8612 10.597 17.6846 10.0751C17.5991 9.8227 17.4974 9.57788 17.3805 9.34185C17.1361 8.84791 17.1762 8.23808 17.5659 7.84836L17.6569 7.75736C18.0474 7.36684 18.0474 6.73367 17.6569 6.34315C17.2664 5.95262 16.6332 5.95262 16.2427 6.34315L16.1517 6.43415C15.7619 6.82386 15.1521 6.86396 14.6582 6.61947C14.4221 6.50263 14.1773 6.40087 13.9249 6.31545C13.403 6.13875 13 5.67931 13 5.12824V5C13 4.44772 12.5523 4 12 4ZM12 15C13.6569 15 15 13.6569 15 12C15 10.3431 13.6569 9 12 9C10.3431 9 9 10.3431 9 12C9 13.6569 10.3431 15 12 15Z"/>
	</symbol>
</svg>
