<svg xmlns="http://www.w3.org/2000/svg">
	<symbol id="outline" viewBox="0 0 24 24">
		<path d="M0.999992 4.75032H3.73599C3.95063 5.54005 4.41917 6.23721 5.06932 6.73425C5.71947 7.23129 6.51511 7.50058 7.33349 7.50058C8.15187 7.50058 8.94751 7.23129 9.59767 6.73425C10.2478 6.23721 10.7164 5.54005 10.931 4.75032H23C23.2652 4.75032 23.5196 4.64496 23.7071 4.45743C23.8946 4.26989 24 4.01554 24 3.75032C24 3.4851 23.8946 3.23075 23.7071 3.04321C23.5196 2.85568 23.2652 2.75032 23 2.75032H10.931C10.7164 1.96059 10.2478 1.26343 9.59767 0.766389C8.94751 0.269352 8.15187 6.10352e-05 7.33349 6.10352e-05C6.51511 6.10352e-05 5.71947 0.269352 5.06932 0.766389C4.41917 1.26343 3.95063 1.96059 3.73599 2.75032H0.999992C0.734776 2.75032 0.480422 2.85568 0.292886 3.04321C0.105349 3.23075 -7.62939e-06 3.4851 -7.62939e-06 3.75032C-7.62939e-06 4.01554 0.105349 4.26989 0.292886 4.45743C0.480422 4.64496 0.734776 4.75032 0.999992 4.75032ZM7.33299 2.00032C7.67911 2.00032 8.01745 2.10296 8.30524 2.29525C8.59303 2.48754 8.81733 2.76085 8.94978 3.08062C9.08223 3.40039 9.11689 3.75226 9.04937 4.09173C8.98184 4.43119 8.81517 4.74301 8.57043 4.98776C8.32569 5.2325 8.01387 5.39917 7.6744 5.46669C7.33493 5.53422 6.98307 5.49956 6.6633 5.36711C6.34353 5.23466 6.07021 5.01035 5.87792 4.72257C5.68563 4.43478 5.58299 4.09644 5.58299 3.75032C5.58352 3.28635 5.76807 2.84154 6.09614 2.51347C6.42421 2.18539 6.86903 2.00085 7.33299 2.00032Z"/>
		<path d="M23 10.9991H20.264C20.0497 10.2092 19.5814 9.51178 18.9313 9.01454C18.2812 8.5173 17.4855 8.24788 16.667 8.24788C15.8485 8.24788 15.0528 8.5173 14.4027 9.01454C13.7526 9.51178 13.2843 10.2092 13.07 10.9991H0.999992C0.734776 10.9991 0.480422 11.1045 0.292886 11.292C0.105349 11.4795 -7.62939e-06 11.7339 -7.62939e-06 11.9991C-7.62939e-06 12.2643 0.105349 12.5187 0.292886 12.7062C0.480422 12.8937 0.734776 12.9991 0.999992 12.9991H13.07C13.2843 13.789 13.7526 14.4864 14.4027 14.9837C15.0528 15.4809 15.8485 15.7503 16.667 15.7503C17.4855 15.7503 18.2812 15.4809 18.9313 14.9837C19.5814 14.4864 20.0497 13.789 20.264 12.9991H23C23.2652 12.9991 23.5196 12.8937 23.7071 12.7062C23.8946 12.5187 24 12.2643 24 11.9991C24 11.7339 23.8946 11.4795 23.7071 11.292C23.5196 11.1045 23.2652 10.9991 23 10.9991ZM16.667 13.7491C16.3209 13.7491 15.9825 13.6465 15.6947 13.4542C15.407 13.2619 15.1827 12.9886 15.0502 12.6688C14.9178 12.349 14.8831 11.9972 14.9506 11.6577C15.0181 11.3182 15.1848 11.0064 15.4296 10.7617C15.6743 10.5169 15.9861 10.3503 16.3256 10.2827C16.6651 10.2152 17.0169 10.2499 17.3367 10.3823C17.6565 10.5148 17.9298 10.7391 18.1221 11.0269C18.3144 11.3146 18.417 11.653 18.417 11.9991C18.4165 12.4631 18.2319 12.9079 17.9038 13.236C17.5758 13.564 17.131 13.7486 16.667 13.7491Z"/>
		<path d="M23 19.2503H10.931C10.7164 18.4606 10.2478 17.7634 9.59767 17.2664C8.94751 16.7694 8.15187 16.5001 7.33349 16.5001C6.51511 16.5001 5.71947 16.7694 5.06932 17.2664C4.41917 17.7634 3.95063 18.4606 3.73599 19.2503H0.999992C0.734776 19.2503 0.480422 19.3557 0.292886 19.5432C0.105349 19.7307 -7.62939e-06 19.9851 -7.62939e-06 20.2503C-7.62939e-06 20.5155 0.105349 20.7699 0.292886 20.9574C0.480422 21.1449 0.734776 21.2503 0.999992 21.2503H3.73599C3.95063 22.04 4.41917 22.7372 5.06932 23.2342C5.71947 23.7313 6.51511 24.0006 7.33349 24.0006C8.15187 24.0006 8.94751 23.7313 9.59767 23.2342C10.2478 22.7372 10.7164 22.04 10.931 21.2503H23C23.2652 21.2503 23.5196 21.1449 23.7071 20.9574C23.8946 20.7699 24 20.5155 24 20.2503C24 19.9851 23.8946 19.7307 23.7071 19.5432C23.5196 19.3557 23.2652 19.2503 23 19.2503ZM7.33299 22.0003C6.98688 22.0003 6.64853 21.8977 6.36074 21.7054C6.07296 21.5131 5.84866 21.2398 5.7162 20.92C5.58375 20.6002 5.54909 20.2484 5.61662 19.9089C5.68414 19.5694 5.85081 19.2576 6.09556 19.0129C6.3403 18.7681 6.65212 18.6015 6.99158 18.5339C7.33105 18.4664 7.68292 18.5011 8.00269 18.6335C8.32246 18.766 8.59577 18.9903 8.78806 19.2781C8.98036 19.5658 9.08299 19.9042 9.08299 20.2503C9.0822 20.7142 8.89757 21.1588 8.56955 21.4869C8.24154 21.8149 7.79688 21.9995 7.33299 22.0003Z"/>
	</symbol>
	<symbol id="fill" viewBox="0 0 24 24">
		<path d="M0.999992 4.75032H3.73599C3.95063 5.54005 4.41917 6.23721 5.06932 6.73425C5.71947 7.23129 6.51511 7.50058 7.33349 7.50058C8.15187 7.50058 8.94751 7.23129 9.59767 6.73425C10.2478 6.23721 10.7164 5.54005 10.931 4.75032H23C23.2652 4.75032 23.5196 4.64496 23.7071 4.45743C23.8946 4.26989 24 4.01554 24 3.75032C24 3.4851 23.8946 3.23075 23.7071 3.04321C23.5196 2.85568 23.2652 2.75032 23 2.75032H10.931C10.7164 1.96059 10.2478 1.26343 9.59767 0.766389C8.94751 0.269352 8.15187 6.10352e-05 7.33349 6.10352e-05C6.51511 6.10352e-05 5.71947 0.269352 5.06932 0.766389C4.41917 1.26343 3.95063 1.96059 3.73599 2.75032H0.999992C0.734776 2.75032 0.480422 2.85568 0.292886 3.04321C0.105349 3.23075 -7.62939e-06 3.4851 -7.62939e-06 3.75032C-7.62939e-06 4.01554 0.105349 4.26989 0.292886 4.45743C0.480422 4.64496 0.734776 4.75032 0.999992 4.75032Z"/>
		<path d="M23 10.9991H20.264C20.0497 10.2092 19.5814 9.51178 18.9313 9.01454C18.2812 8.5173 17.4855 8.24788 16.667 8.24788C15.8485 8.24788 15.0528 8.5173 14.4027 9.01454C13.7526 9.51178 13.2843 10.2092 13.07 10.9991H0.999992C0.734776 10.9991 0.480422 11.1045 0.292886 11.292C0.105349 11.4795 -7.62939e-06 11.7339 -7.62939e-06 11.9991C-7.62939e-06 12.2643 0.105349 12.5187 0.292886 12.7062C0.480422 12.8937 0.734776 12.9991 0.999992 12.9991H13.07C13.2843 13.789 13.7526 14.4864 14.4027 14.9837C15.0528 15.4809 15.8485 15.7503 16.667 15.7503C17.4855 15.7503 18.2812 15.4809 18.9313 14.9837C19.5814 14.4864 20.0497 13.789 20.264 12.9991H23C23.2652 12.9991 23.5196 12.8937 23.7071 12.7062C23.8946 12.5187 24 12.2643 24 11.9991C24 11.7339 23.8946 11.4795 23.7071 11.292C23.5196 11.1045 23.2652 10.9991 23 10.9991Z"/>
		<path d="M23 19.2503H10.931C10.7164 18.4606 10.2478 17.7634 9.59767 17.2664C8.94751 16.7694 8.15187 16.5001 7.33349 16.5001C6.51511 16.5001 5.71947 16.7694 5.06932 17.2664C4.41917 17.7634 3.95063 18.4606 3.73599 19.2503H0.999992C0.734776 19.2503 0.480422 19.3557 0.292886 19.5432C0.105349 19.7307 -7.62939e-06 19.9851 -7.62939e-06 20.2503C-7.62939e-06 20.5155 0.105349 20.7699 0.292886 20.9574C0.480422 21.1449 0.734776 21.2503 0.999992 21.2503H3.73599C3.95063 22.04 4.41917 22.7372 5.06932 23.2342C5.71947 23.7313 6.51511 24.0006 7.33349 24.0006C8.15187 24.0006 8.94751 23.7313 9.59767 23.2342C10.2478 22.7372 10.7164 22.04 10.931 21.2503H23C23.2652 21.2503 23.5196 21.1449 23.7071 20.9574C23.8946 20.7699 24 20.5155 24 20.2503C24 19.9851 23.8946 19.7307 23.7071 19.5432C23.5196 19.3557 23.2652 19.2503 23 19.2503Z"/>
	</symbol>
</svg>
