<svg xmlns="http://www.w3.org/2000/svg">
	<symbol id="toggle" viewBox="0 0 24 24">
		<path fill-rule="evenodd" clip-rule="evenodd" d="M13.5 19.8596C17.2013 19.1575 20 15.9056 20 12C20 8.09442 17.2013 4.84251 13.5 4.1404C8.68045 3.22615 4 7.04572 4 12C4 16.9543 8.68045 20.7738 13.5 19.8596ZM5.5 12C5.5 8.41015 8.41015 5.5 12 5.5L12 18.5C8.41015 18.5 5.5 15.5898 5.5 12Z"/>
	</symbol>
	<symbol id="system" viewBox="0 0 24 24">
		<path fill-rule="evenodd" clip-rule="evenodd" d="M4 12C4 7.58172 7.58172 4 12 4C16.4183 4 20 7.58172 20 12C20 16.3655 16.2736 20 12 20C7.58172 20 4 16.4183 4 12ZM5.5 12C5.5 8.41015 8.41015 5.5 12 5.5L12 7C9.23858 7 7 9.23858 7 12C7 14.7614 9.23858 17 12 17L12 18.5C8.41015 18.5 5.5 15.5899 5.5 12ZM12 17V7C14.7614 7 17 9.23858 17 12C17 14.7278 14.7019 17 12 17Z"/>
	</symbol>
</svg>
