<svg xmlns="http://www.w3.org/2000/svg">
	<symbol id="outline" viewBox="0 0 24 24">
		<path d="M23.0014 22.5855C22.7361 22.5855 22.4818 22.4802 22.2943 22.2927C22.1067 22.1051 22.0014 21.8508 22.0014 21.5855C21.9998 19.9947 21.3671 18.4695 20.2422 17.3447C19.1174 16.2198 17.5922 15.5871 16.0014 15.5856H10.1714V17.1716C10.1713 17.5671 10.0539 17.9536 9.83416 18.2825C9.6144 18.6113 9.30207 18.8676 8.93667 19.0189C8.57127 19.1702 8.1692 19.2099 7.7813 19.1327C7.39339 19.0556 7.03706 18.8652 6.75736 18.5856L0.878359 12.7066C0.315946 12.144 0 11.3811 0 10.5856C0 9.79007 0.315946 9.02715 0.878359 8.46456L6.75736 2.58557C7.03706 2.30595 7.39339 2.11554 7.7813 2.03841C8.1692 1.96127 8.57127 2.00088 8.93667 2.15222C9.30207 2.30356 9.6144 2.55984 9.83416 2.88866C10.0539 3.21747 10.1713 3.60407 10.1714 3.99957V5.58557H15.0014C17.3875 5.58822 19.6751 6.53728 21.3624 8.22453C23.0497 9.91178 23.9987 12.1994 24.0014 14.5856V21.5855C24.0014 21.8508 23.896 22.1051 23.7085 22.2927C23.5209 22.4802 23.2666 22.5855 23.0014 22.5855ZM8.17136 3.99957L2.29236 9.87856C2.10489 10.0661 1.99957 10.3204 1.99957 10.5856C1.99957 10.8507 2.10489 11.105 2.29236 11.2926L8.17136 17.1716V14.5856C8.17136 14.3203 8.27672 14.066 8.46425 13.8785C8.65179 13.6909 8.90614 13.5856 9.17136 13.5856H16.0014C17.137 13.5852 18.2595 13.8271 19.2942 14.2951C20.3289 14.7632 21.2518 15.4465 22.0014 16.2996V14.5856C21.9992 12.7297 21.2611 10.9504 19.9488 9.63815C18.6365 8.32586 16.8572 7.58768 15.0014 7.58557H9.17136C8.90614 7.58557 8.65179 7.48021 8.46425 7.29267C8.27672 7.10514 8.17136 6.85078 8.17136 6.58557V3.99957Z"/>
	</symbol>
	<symbol id="fill" viewBox="0 0 24 24">
		<path d="M23.0014 22.5855C22.7361 22.5855 22.4818 22.4802 22.2943 22.2927C22.1067 22.1051 22.0014 21.8508 22.0014 21.5855C21.9998 19.9947 21.3671 18.4695 20.2422 17.3447C19.1174 16.2198 17.5922 15.5871 16.0014 15.5856H10.1714V17.1716C10.1713 17.5671 10.0539 17.9536 9.83416 18.2825C9.6144 18.6113 9.30207 18.8676 8.93667 19.0189C8.57127 19.1702 8.1692 19.2099 7.7813 19.1327C7.39339 19.0556 7.03706 18.8652 6.75736 18.5856L0.878359 12.7066C0.315946 12.144 0 11.3811 0 10.5856C0 9.79007 0.315946 9.02715 0.878359 8.46456L6.75736 2.58557C7.03706 2.30595 7.39339 2.11554 7.7813 2.03841C8.1692 1.96127 8.57127 2.00088 8.93667 2.15222C9.30207 2.30356 9.6144 2.55984 9.83416 2.88866C10.0539 3.21747 10.1713 3.60407 10.1714 3.99957V5.58557H15.0014C17.3875 5.58822 19.6751 6.53728 21.3624 8.22453C23.0497 9.91178 23.9987 12.1994 24.0014 14.5856V21.5855C24.0014 21.8508 23.896 22.1051 23.7085 22.2927C23.5209 22.4802 23.2666 22.5855 23.0014 22.5855Z"/>
	</symbol>
</svg>
