<svg xmlns="http://www.w3.org/2000/svg">
	<symbol id="fish" viewBox="0 0 28 21">
		<path d="M12.9929 0.0953461C13.6255 0.244234 14.4825 0.591701 15.2359 1.00475C16.5351 1.71692 17.6007 2.60175 18.7202 3.89792L19.3937 4.67769L19.9955 4.79015C22.139 5.19067 24.3519 6.08039 25.7128 7.08875C26.3738 7.57856 27.2061 8.49921 27.5054 9.07154C28.5604 11.0891 27.9061 13.2491 25.7491 14.8691C23.9619 16.2114 21.1461 17.1666 18.0411 17.4837L17.345 17.5547L16.8102 18.1459C15.9357 19.1126 14.9547 19.8521 13.9441 20.3067C13.4705 20.5197 12.656 20.776 12.4527 20.776C12.2333 20.776 11.8935 20.5354 11.7721 20.294C11.6591 20.0693 11.6526 19.9819 11.6526 18.6798V17.3032L11.256 17.232C10.4611 17.0892 9.14233 16.7225 8.25766 16.3982C6.83779 15.8777 5.53833 15.1207 4.66017 14.3025L4.31464 13.9806L3.83032 14.3987C3.5639 14.6286 2.86212 15.2403 2.27084 15.7579C1.11171 16.7725 0.961755 16.8566 0.575468 16.7082C0.465616 16.666 0.324689 16.5807 0.262378 16.5187C-0.00421012 16.2535 2.88885e-06 16.342 2.88885e-06 11.0027C2.88885e-06 7.61169 0.0188219 5.93737 0.058211 5.82088C0.206741 5.38173 0.635043 5.12851 1.02576 5.24898C1.15662 5.28932 1.68662 5.71208 2.48918 6.41643C3.18122 7.02372 3.87524 7.631 4.03143 7.76589L4.31536 8.01123L4.68282 7.66297C5.99087 6.42321 8.1704 5.41687 10.7363 4.86789L11.6526 4.67182V2.69331C11.6526 0.772432 11.6561 0.707829 11.7721 0.477223C11.9002 0.222537 12.2417 -0.00855774 12.4768 0.000243527C12.5501 0.0029328 12.7823 0.0457778 12.9929 0.0953461ZM13.2938 3.28446V4.43455L14.9761 4.41176C15.9013 4.39929 16.6892 4.3837 16.7269 4.37716C16.9005 4.34709 15.3878 3.1547 14.6396 2.73175C14.17 2.46631 13.4765 2.14396 13.3622 2.13797C13.3098 2.13528 13.2938 2.40329 13.2938 3.28446ZM12.8015 6.37847C10.632 6.66757 8.76206 7.21429 7.33464 7.97682C6.43892 8.45533 5.89617 8.88133 5.32782 9.552C4.93229 10.0187 4.79804 10.139 4.6343 10.1733C4.24216 10.2555 4.11896 10.1801 2.87836 9.09916C2.22078 8.52616 1.67317 8.06807 1.66146 8.08121C1.64975 8.09429 1.64652 9.41821 1.65435 11.0232L1.66857 13.9414L2.73536 13.0072C4.13701 11.7798 4.12147 11.7909 4.42526 11.7935C4.75958 11.7964 4.84207 11.8558 5.33384 12.4474C6.39182 13.7203 8.30175 14.6935 10.869 15.2679C16.4792 16.523 23.2028 15.3126 25.6196 12.6126C26.5885 11.5301 26.5867 10.4525 25.6142 9.36601C24.2121 7.79945 21.1149 6.62197 17.5336 6.29382C16.6156 6.20972 13.673 6.26234 12.8015 6.37847ZM21.7037 8.86C21.9964 9.02606 22.1564 9.30874 22.1562 9.65939C22.1557 10.3423 21.5352 10.7674 20.9737 10.4698C20.5646 10.2529 20.4201 9.74972 20.6349 9.28906C20.872 8.78018 21.2767 8.61778 21.7037 8.86ZM13.2938 18.0874V18.6381L13.7452 18.3847C13.9934 18.2454 14.3442 18.0181 14.5247 17.8798L14.853 17.6283L14.4153 17.5937C14.1746 17.5747 13.8238 17.554 13.6358 17.5478L13.2938 17.5366V18.0874Z"/>
	</symbol>
	<symbol id="fish-hover" viewBox="0 0 28 21">
		<path d="M13.1092 0.0979009C14.8858 0.50464 16.9747 1.70187 18.3638 3.10928C18.7125 3.46271 18.7738 3.54744 18.6648 3.52571C18.3904 3.47098 17.8542 3.4325 16.6577 3.38165C15.3281 3.32511 13.663 3.37973 12.4608 3.51931C12.0741 3.56424 11.7355 3.60097 11.7082 3.60097C11.6798 3.60097 11.6587 2.96243 11.6587 2.10855C11.6587 0.392433 11.6724 0.330089 12.0985 0.111585C12.3822 -0.0338474 12.5252 -0.0357631 13.1092 0.0979009ZM17.4333 5.06197C18.0686 5.10406 19.2925 5.25584 20.0058 5.38102C24.2236 6.12132 27.1219 7.80586 27.8672 9.95029C28.0443 10.46 28.0443 11.4111 27.8672 11.9208C27.1242 14.0585 24.175 15.7658 19.9785 16.4875C18.6015 16.7243 17.7644 16.7993 16.143 16.8313C14.554 16.8625 13.3961 16.81 12.1787 16.6515C9.02206 16.2406 6.38999 15.2871 4.74267 13.9576L4.31283 13.6107L3.83023 13.9836C3.56482 14.1887 2.8636 14.7358 2.27202 15.1993C1.11228 16.1079 0.962255 16.1832 0.575767 16.0503C0.465859 16.0125 0.324859 15.9362 0.262515 15.8806C-0.00421104 15.6431 4.14451e-06 15.7224 4.14451e-06 10.9408C4.14451e-06 7.904 0.0188329 6.40458 0.0582425 6.30025C0.206849 5.90698 0.635374 5.68021 1.02629 5.78809C1.15722 5.82422 1.6875 6.20282 2.49047 6.8336C3.18287 7.37745 3.87725 7.9213 4.03352 8.0421L4.3176 8.26181L4.68525 7.94993C6.46262 6.44213 9.7421 5.37249 13.4866 5.07938C14.1269 5.02924 16.7636 5.01758 17.4333 5.06197ZM20.9137 9.06002C20.6971 9.2176 20.5141 9.60989 20.5442 9.85193C20.6376 10.6025 21.6612 10.808 22.0587 10.156C22.2019 9.92112 22.2012 9.55192 22.0571 9.31864C21.824 8.94157 21.2538 8.81261 20.9137 9.06002ZM12.0464 18.293C12.1176 18.3641 14.2468 18.4893 15.4178 18.4912L16.7764 18.4933L16.5028 18.7466C15.5489 19.6292 14.2854 20.3405 13.114 20.6544C12.4998 20.8189 12.3932 20.8199 12.0973 20.6634C11.701 20.4539 11.6587 20.3139 11.6587 19.2151V18.2701H11.8411C11.9415 18.2701 12.0339 18.2804 12.0464 18.293Z"/>
	</symbol>
	<symbol id="settings" viewBox="0 0 20 20">
		<path d="M10 1.52863L7.89868 3.70279C7.67502 3.9342 7.36698 4.06488 7.04515 4.06488H4.06488V7.04515C4.06488 7.36698 3.9342 7.67502 3.70279 7.89868L1.52863 10L3.70279 12.1013C3.9342 12.325 4.06488 12.633 4.06488 12.9548V15.9351H7.04515C7.36698 15.9351 7.67502 16.0658 7.89868 16.2972L10 18.4714L12.1013 16.2972C12.325 16.0658 12.633 15.9351 12.9548 15.9351H15.9351V12.9548C15.9351 12.633 16.0658 12.325 16.2972 12.1013L18.4714 10L16.2972 7.89869C16.0658 7.67503 15.9351 7.36699 15.9351 7.04516V4.06488H12.9548C12.633 4.06488 12.325 3.9342 12.1013 3.70279L10 1.52863ZM9.14647 0.36209C9.61308 -0.120697 10.3869 -0.120696 10.8535 0.362091L13.0556 2.64045H16.1725C16.8281 2.64045 17.3596 3.1719 17.3596 3.82747V6.94444L19.6379 9.14647C20.1207 9.61308 20.1207 10.3869 19.6379 10.8535L17.3596 13.0556V16.1725C17.3596 16.8281 16.8281 17.3596 16.1725 17.3596H13.0556L10.8535 19.6379C10.3869 20.1207 9.61308 20.1207 9.14647 19.6379L6.94444 17.3596H3.82747C3.1719 17.3596 2.64045 16.8281 2.64045 16.1725V13.0556L0.36209 10.8535C-0.120696 10.3869 -0.120697 9.61308 0.36209 9.14647L2.64045 6.94444V3.82747C2.64045 3.1719 3.1719 2.64045 3.82747 2.64045H6.94444L9.14647 0.36209Z"/>
		<path d="M5.48931 10C5.48931 7.50881 7.50881 5.48931 10 5.48931C12.4912 5.48931 14.5107 7.50881 14.5107 10C14.5107 12.4912 12.4912 14.5107 10 14.5107C7.50881 14.5107 5.48931 12.4912 5.48931 10ZM10 6.91374C8.2955 6.91374 6.91374 8.2955 6.91374 10C6.91374 11.7045 8.2955 13.0863 10 13.0863C11.7045 13.0863 13.0863 11.7045 13.0863 10C13.0863 8.2955 11.7045 6.91374 10 6.91374Z"/>
	</symbol>
	<symbol id="settings-hover" viewBox="0 0 20 20">
		<path d="M6.87206 10C6.87206 8.27249 8.27248 6.87207 9.99999 6.87207C11.7275 6.87207 13.1279 8.27249 13.1279 10C13.1279 11.7275 11.7275 13.1279 9.99999 13.1279C8.27248 13.1279 6.87206 11.7275 6.87206 10Z"/>
		<path d="M9.48097 0.220188C9.76471 -0.073396 10.2353 -0.073396 10.519 0.220188L12.9947 2.78171H16.4965C16.8951 2.78171 17.2183 3.10488 17.2183 3.50354V7.00527L19.7798 9.48097C20.0734 9.76471 20.0734 10.2353 19.7798 10.519L17.2183 12.9947V16.4965C17.2183 16.8951 16.8951 17.2183 16.4965 17.2183H12.9947L10.519 19.7798C10.2353 20.0734 9.76471 20.0734 9.48097 19.7798L7.00526 17.2183H3.50354C3.10488 17.2183 2.78171 16.8951 2.78171 16.4965V12.9947L0.220188 10.519C-0.0733955 10.2353 -0.0733961 9.76472 0.220187 9.48097L2.78171 7.00526V3.50354C2.78171 3.10488 3.10488 2.78171 3.50354 2.78171H7.00526L9.48097 0.220188ZM9.99999 5.42841C7.47517 5.42841 5.42841 7.47518 5.42841 10C5.42841 12.5248 7.47517 14.5716 9.99999 14.5716C12.5248 14.5716 14.5716 12.5248 14.5716 10C14.5716 7.47518 12.5248 5.42841 9.99999 5.42841Z"/>
	</symbol>
	<symbol id="close" viewBox="0 0 28 27">
		<path d="M14.8485 24.1252C14.1456 24.1252 13.5758 24.7038 13.5758 25.4176C13.5758 26.1314 14.1456 26.71 14.8485 26.71H25.0303C26.6704 26.71 28 25.3598 28 23.6944V3.01565C28 1.35015 26.6704 0 25.0303 0H14.8485C14.1456 0 13.5758 0.578638 13.5758 1.29242C13.5758 2.0062 14.1456 2.58484 14.8485 2.58484L25.0303 2.58484C25.2646 2.58484 25.4545 2.77772 25.4545 3.01565L25.4545 23.6944C25.4545 23.9323 25.2646 24.1252 25.0303 24.1252H14.8485Z"/>
		<path d="M19.0961 17.4308C20.2676 17.4308 21.2173 16.4664 21.2173 15.2768V11.4159C21.2173 10.2262 20.2676 9.26183 19.0961 9.26183L11.2687 9.26183C11.2576 9.1353 11.246 9.0088 11.2339 8.88234L11.1422 7.92443C11.0024 6.46295 9.47407 5.5877 8.17008 6.22229C5.39685 7.57191 2.88629 9.41878 0.759148 11.6741L0.59081 11.8525C-0.196936 12.6877 -0.196936 14.0049 0.590808 14.8401L0.759148 15.0185C2.88629 17.2738 5.39685 19.1207 8.17008 20.4703C9.47407 21.1049 11.0024 20.2297 11.1422 18.7682L11.2339 17.8103C11.246 17.6838 11.2576 17.5573 11.2687 17.4308H19.0961ZM10.0887 14.846C9.63665 14.846 9.23704 15.086 9.01105 15.4504C8.90099 15.6279 8.83211 15.8348 8.81841 16.0579C8.78762 16.5592 8.74829 17.06 8.70042 17.5602L8.67381 17.8383C6.91566 16.9182 5.28295 15.7724 3.81543 14.4301C3.4347 14.0819 3.0651 13.7205 2.70731 13.3463C4.44422 11.5299 6.45954 10.0131 8.6738 8.85435L8.70042 9.13239C8.74829 9.6326 8.78762 10.1334 8.81841 10.6347C8.86025 11.3159 9.41652 11.8467 10.0887 11.8467H18.6719V14.846H10.0887Z"/>
	</symbol>
	<symbol id="close-hover" viewBox="0 0 28 27">
		<path d="M13.3539 25.4154C13.3539 24.7017 13.9324 24.1231 14.6462 24.1231H24.9846C25.2225 24.1231 25.4154 23.9302 25.4154 23.6923L25.4154 3.01538C25.4154 2.77748 25.2225 2.58462 24.9846 2.58462L14.6462 2.58462C13.9324 2.58462 13.3539 2.00603 13.3539 1.29231C13.3539 0.578588 13.9324 0 14.6462 0H24.9846C26.65 0 28 1.35003 28 3.01538V23.6923C28 25.3576 26.65 26.7077 24.9846 26.7077H14.6462C13.9324 26.7077 13.3539 26.1291 13.3539 25.4154Z"/>
		<path d="M20.8692 15.2754C20.8692 16.2271 20.0978 16.9985 19.1461 16.9985H10.7789C10.7394 17.6109 10.6899 18.2229 10.6305 18.8341L10.5794 19.36C10.4963 20.2151 9.58833 20.7271 8.81361 20.3558C5.66396 18.8464 2.81265 16.7808 0.396794 14.2585L0.345174 14.2046C-0.115058 13.724 -0.115058 12.9663 0.345175 12.4857L0.396796 12.4318C2.81265 9.90947 5.66396 7.84389 8.8136 6.33445C9.58833 5.96317 10.4963 6.47525 10.5794 7.33031L10.6305 7.8562C10.6899 8.46742 10.7394 9.07937 10.7789 9.6918L19.1461 9.6918C20.0978 9.6918 20.8692 10.4632 20.8692 11.4149V15.2754Z"/>
	</symbol>
	<symbol id="power" viewBox="0 0 28 28">
		<path d="M10.8 7.73157C10.8 7.43918 10.4969 7.24736 10.2429 7.39212C7.94762 8.69998 6.4 11.1693 6.4 14C6.4 18.1974 9.80264 21.6 14 21.6C18.1974 21.6 21.6 18.1974 21.6 14C21.6 11.1693 20.0524 8.69998 17.7571 7.39212C17.5031 7.24736 17.2 7.43918 17.2 7.73157V9.70591C17.2 9.829 17.2573 9.94451 17.3514 10.0239C18.4819 10.9778 19.2 12.405 19.2 14C19.2 16.8719 16.8719 19.2 14 19.2C11.1281 19.2 8.8 16.8719 8.8 14C8.8 12.405 9.5181 10.9778 10.6486 10.0239C10.7427 9.94451 10.8 9.82899 10.8 9.70591V7.73157Z"/>
		<path d="M15.2 6C15.2 5.33726 14.6627 4.8 14 4.8C13.3373 4.8 12.8 5.33726 12.8 6V14C12.8 14.6627 13.3373 15.2 14 15.2C14.6627 15.2 15.2 14.6627 15.2 14V6Z"/>
		<path d="M0 14C0 6.26801 6.26801 0 14 0C21.732 0 28 6.26801 28 14C28 21.732 21.732 28 14 28C6.26801 28 0 21.732 0 14ZM14 2.4C7.5935 2.4 2.4 7.5935 2.4 14C2.4 20.4065 7.5935 25.6 14 25.6C20.4065 25.6 25.6 20.4065 25.6 14C25.6 7.5935 20.4065 2.4 14 2.4Z"/>
	</symbol>
	<symbol id="power-hover" viewBox="0 0 28 28">
		<path fill-rule="evenodd" d="M0 14C0 6.26801 6.26801 0 14 0C21.732 0 28 6.26801 28 14C28 21.732 21.732 28 14 28C6.26801 28 0 21.732 0 14ZM14 4.8C14.6627 4.8 15.2 5.33726 15.2 6V14C15.2 14.6627 14.6627 15.2 14 15.2C13.3373 15.2 12.8 14.6627 12.8 14V6C12.8 5.33726 13.3373 4.8 14 4.8ZM10.8 7.73157C10.8 7.43918 10.4969 7.24736 10.2429 7.39212C7.94762 8.69998 6.4 11.1693 6.4 14C6.4 18.1974 9.80264 21.6 14 21.6C18.1974 21.6 21.6 18.1974 21.6 14C21.6 11.1693 20.0524 8.69998 17.7571 7.39212C17.5031 7.24736 17.2 7.43918 17.2 7.73157V9.70591C17.2 9.829 17.2573 9.94451 17.3514 10.0239C18.4819 10.9778 19.2 12.405 19.2 14C19.2 16.8719 16.8719 19.2 14 19.2C11.1281 19.2 8.8 16.8719 8.8 14C8.8 12.405 9.5181 10.9778 10.6486 10.0239C10.7427 9.94451 10.8 9.829 10.8 9.70591V7.73157Z"/>
	</symbol>
	<symbol id="comeback" viewBox="0 0 28 20">
		<path d="M27.6665 17.5366C28.0182 17.1761 28.1005 16.635 27.8716 16.1882L26.7129 13.9259C24.078 8.78152 18.7409 5.53903 12.9083 5.53903H12.2674C12.227 4.67085 12.1749 3.80307 12.1109 2.93593L12.0023 1.46273C11.9146 0.272631 10.5723 -0.392644 9.55523 0.249854C6.19756 2.37093 3.27858 5.104 0.953889 8.30336L0.223568 9.30847C-0.0745225 9.71872 -0.0745225 10.2713 0.223567 10.6815L0.953892 11.6866C3.27859 14.886 6.19756 17.6191 9.55523 19.7401C10.5723 20.3826 11.9146 19.7174 12.0023 18.5273L12.1109 17.0541C12.1873 16.0192 12.2468 14.9835 12.2895 13.9473C15.7367 13.8474 19.1801 14.5345 22.3444 15.9784L26.3109 17.7882C26.7709 17.9981 27.3148 17.8971 27.6665 17.5366ZM24.1578 14.2138L23.342 13.8415C19.4829 12.0807 15.2486 11.3373 11.0471 11.6563C10.4403 11.7024 9.96645 12.1935 9.94847 12.7948C9.90768 14.1585 9.8371 15.5215 9.73672 16.883L9.72666 17.0194C7.08775 15.1779 4.77543 12.9121 2.88729 10.3136L2.6558 9.995L2.88729 9.67642C4.77543 7.07785 7.08775 4.81212 9.72666 2.97059L9.73672 3.10704C9.82632 4.3223 9.89218 5.53884 9.9343 6.75599C9.95623 7.38985 10.4823 7.89249 11.1239 7.89249L12.9083 7.89249C17.5438 7.89248 21.8093 10.3129 24.1578 14.2138Z"/>
	</symbol>
	<symbol id="comeback-hover" viewBox="0 0 28 20">
		<path d="M27.9119 16.6276C28.0689 16.9377 28.0125 17.3132 27.7712 17.5634C27.5299 17.8136 27.1567 17.8837 26.8411 17.738L22.7589 15.854C19.328 14.2705 15.5839 13.5461 11.8462 13.7165C11.8018 14.9167 11.736 16.1164 11.6486 17.3148L11.5368 18.8485C11.469 19.7789 10.4316 20.299 9.64546 19.7967C6.23349 17.6165 3.26731 14.8073 0.90502 11.5188L0.153391 10.4725C-0.0511305 10.1877 -0.0511304 9.80427 0.153391 9.51955L0.905017 8.47323C3.26731 5.18472 6.23349 2.37551 9.64546 0.195334C10.4316 -0.306966 11.469 0.213141 11.5368 1.14355L11.6486 2.67716C11.7236 3.70591 11.7828 4.73553 11.8261 5.76564H12.8765C18.7253 5.76563 24.0772 9.05454 26.7194 14.2726L27.9119 16.6276Z"/>
	</symbol>
	<symbol id="info" viewBox="0 0 28 28">
		<path d="M14 12C14.6627 12 15.2 12.5373 15.2 13.2V21.2C15.2 21.8627 14.6627 22.4 14 22.4C13.3373 22.4 12.8 21.8627 12.8 21.2V13.2C12.8 12.5373 13.3373 12 14 12Z"/>
		<path d="M14 9.2C14.8837 9.2 15.6 8.48366 15.6 7.6C15.6 6.71634 14.8837 6 14 6C13.1163 6 12.4 6.71634 12.4 7.6C12.4 8.48366 13.1163 9.2 14 9.2Z"/>
		<path d="M0 14C0 6.26801 6.26801 0 14 0C21.732 0 28 6.26801 28 14C28 21.732 21.732 28 14 28C6.26801 28 0 21.732 0 14ZM14 2.4C7.5935 2.4 2.4 7.5935 2.4 14C2.4 20.4065 7.5935 25.6 14 25.6C20.4065 25.6 25.6 20.4065 25.6 14C25.6 7.5935 20.4065 2.4 14 2.4Z"/>
	</symbol>
	<symbol id="info-hover" viewBox="0 0 28 28">
		<path fill-rule="evenodd" d="M0 14C0 6.26801 6.26801 0 14 0C21.732 0 28 6.26801 28 14C28 21.732 21.732 28 14 28C6.26801 28 0 21.732 0 14ZM15.6 7.6C15.6 8.48366 14.8837 9.2 14 9.2C13.1163 9.2 12.4 8.48366 12.4 7.6C12.4 6.71634 13.1163 6 14 6C14.8837 6 15.6 6.71634 15.6 7.6ZM14 12C14.6627 12 15.2 12.5373 15.2 13.2V21.2C15.2 21.8627 14.6627 22.4 14 22.4C13.3373 22.4 12.8 21.8627 12.8 21.2V13.2C12.8 12.5373 13.3373 12 14 12Z"/>
	</symbol>
</svg>
