<svg xmlns="http://www.w3.org/2000/svg">
	<symbol id="outline" viewBox="0 0 26 25">
		<path d="M13.7879 22.4019C13.1352 22.4019 12.6061 22.9392 12.6061 23.602C12.6061 24.2648 13.1352 24.8021 13.7879 24.8021H23.2424C24.7654 24.8021 26 23.5484 26 22.0019V2.80024C26 1.25371 24.7654 0 23.2424 0H13.7879C13.1352 0 12.6061 0.537307 12.6061 1.20011C12.6061 1.8629 13.1352 2.40021 13.7879 2.40021L23.2424 2.40021C23.46 2.40021 23.6364 2.57931 23.6364 2.80024L23.6364 22.0019C23.6364 22.2228 23.46 22.4019 23.2424 22.4019H13.7879Z"/>
		<path fill-rule="evenodd" clip-rule="evenodd" d="M17.7321 16.1857C18.82 16.1857 19.7018 15.2902 19.7018 14.1856V10.6004C19.7018 9.49578 18.82 8.60027 17.7321 8.60027L10.4638 8.60027C10.4535 8.48277 10.4427 8.36531 10.4315 8.24789L10.3464 7.3584C10.2165 6.00131 8.79735 5.18858 7.58651 5.77784C5.01136 7.03106 2.68013 8.74601 0.704923 10.8402L0.548609 11.0059C-0.182869 11.7815 -0.182869 13.0045 0.548608 13.7801L0.704923 13.9458C2.68013 16.04 5.01136 17.7549 7.58651 19.0081C8.79735 19.5974 10.2165 18.7847 10.3464 17.4276L10.4315 16.5381C10.4427 16.4207 10.4535 16.3032 10.4638 16.1857H17.7321ZM9.36805 13.7855C8.94832 13.7855 8.57725 14.0084 8.3674 14.3468C8.26521 14.5116 8.20125 14.7038 8.18852 14.9109C8.15993 15.3764 8.12341 15.8414 8.07896 16.3059L8.05425 16.5641C6.42169 15.7097 4.90559 14.6458 3.5429 13.3994C3.18937 13.0761 2.84616 12.7404 2.51393 12.393C4.12678 10.7064 5.99814 9.29791 8.05425 8.2219L8.07896 8.48007C8.12341 8.94456 8.15993 9.40963 8.18852 9.87508C8.22737 10.5076 8.74392 11.0005 9.36805 11.0005H17.3382V13.7855H9.36805Z"/>
	</symbol>
	<symbol id="fill" viewBox="0 0 26 25">
		<path d="M12.4 23.6C12.4 22.9372 12.9373 22.4 13.6 22.4H23.2C23.4209 22.4 23.6 22.2209 23.6 22L23.6 2.8C23.6 2.57909 23.4209 2.4 23.2 2.4L13.6 2.4C12.9373 2.4 12.4 1.86274 12.4 1.2C12.4 0.53726 12.9373 0 13.6 0H23.2C24.7464 0 26 1.2536 26 2.8V22C26 23.5464 24.7464 24.8 23.2 24.8H13.6C12.9373 24.8 12.4 24.2627 12.4 23.6Z"/>
		<path d="M19.3786 14.1843C19.3786 15.068 18.6622 15.7843 17.7786 15.7843H10.009C9.9723 16.353 9.92638 16.9212 9.87121 17.4888L9.82375 17.9771C9.74658 18.7711 8.90345 19.2466 8.18406 18.9019C5.2594 17.5002 2.61175 15.5822 0.368452 13.24L0.320519 13.19C-0.10684 12.7438 -0.10684 12.0401 0.320519 11.5939L0.368453 11.5438C2.61175 9.20165 5.2594 7.28362 8.18406 5.88199C8.90345 5.53723 9.74658 6.01273 9.82375 6.80672L9.87121 7.29504C9.92638 7.8626 9.9723 8.43084 10.009 8.99952L17.7786 8.99952C18.6622 8.99952 19.3786 9.71587 19.3786 10.5995V14.1843Z"/>
	</symbol>
</svg>
