<svg xmlns="http://www.w3.org/2000/svg">
	<symbol id="outline" viewBox="0 0 28 20">
		<path fill-rule="evenodd" clip-rule="evenodd" d="M27.6665 17.5366C28.0182 17.1761 28.1005 16.635 27.8716 16.1882L26.7129 13.9259C24.078 8.78152 18.7409 5.53903 12.9083 5.53903H12.2674C12.227 4.67085 12.1749 3.80307 12.1109 2.93593L12.0023 1.46273C11.9146 0.272631 10.5723 -0.392644 9.55523 0.249854C6.19756 2.37093 3.27858 5.104 0.953889 8.30336L0.223568 9.30847C-0.0745225 9.71872 -0.0745225 10.2713 0.223567 10.6815L0.953892 11.6866C3.27859 14.886 6.19756 17.6191 9.55523 19.7401C10.5723 20.3826 11.9146 19.7174 12.0023 18.5273L12.1109 17.0541C12.1873 16.0192 12.2468 14.9835 12.2895 13.9473C15.7367 13.8474 19.1801 14.5345 22.3444 15.9784L26.3109 17.7882C26.7709 17.9981 27.3148 17.8971 27.6665 17.5366ZM24.1578 14.2138L23.342 13.8415C19.4829 12.0807 15.2486 11.3373 11.0471 11.6563C10.4403 11.7024 9.96645 12.1935 9.94847 12.7948C9.90768 14.1585 9.8371 15.5215 9.73672 16.883L9.72666 17.0194C7.08775 15.1779 4.77543 12.9121 2.88729 10.3136L2.6558 9.995L2.88729 9.67642C4.77543 7.07785 7.08775 4.81212 9.72666 2.97059L9.73672 3.10704C9.82632 4.3223 9.89218 5.53884 9.9343 6.75599C9.95623 7.38985 10.4823 7.89249 11.1239 7.89249L12.9083 7.89249C17.5438 7.89248 21.8093 10.3129 24.1578 14.2138Z"/>
	</symbol>
	<symbol id="fill" viewBox="0 0 28 20">
		<path d="M27.9119 16.6276C28.0689 16.9377 28.0125 17.3132 27.7712 17.5634C27.5299 17.8136 27.1567 17.8837 26.8411 17.738L22.7589 15.854C19.328 14.2705 15.5839 13.5461 11.8462 13.7165C11.8018 14.9167 11.736 16.1164 11.6486 17.3148L11.5368 18.8485C11.469 19.7789 10.4316 20.299 9.64546 19.7967C6.23349 17.6165 3.26731 14.8073 0.90502 11.5188L0.153391 10.4725C-0.0511305 10.1877 -0.0511304 9.80427 0.153391 9.51955L0.905017 8.47323C3.26731 5.18472 6.23349 2.37551 9.64546 0.195334C10.4316 -0.306966 11.469 0.213141 11.5368 1.14355L11.6486 2.67716C11.7236 3.70591 11.7828 4.73553 11.8261 5.76564H12.8765C18.7253 5.76563 24.0772 9.05454 26.7194 14.2726L27.9119 16.6276Z"/>
	</symbol>
</svg>
