<svg xmlns="http://www.w3.org/2000/svg">
	<symbol id="outline" viewBox="0 0 28 21">
		<path fill-rule="evenodd" clip-rule="evenodd" d="M12.9929 0.0953461C13.6255 0.244234 14.4825 0.591701 15.2359 1.00475C16.5351 1.71692 17.6007 2.60175 18.7202 3.89792L19.3937 4.67769L19.9955 4.79015C22.139 5.19067 24.3519 6.08039 25.7128 7.08875C26.3738 7.57856 27.2061 8.49921 27.5054 9.07154C28.5604 11.0891 27.9061 13.2491 25.7491 14.8691C23.9619 16.2114 21.1461 17.1666 18.0411 17.4837L17.345 17.5547L16.8102 18.1459C15.9357 19.1126 14.9547 19.8521 13.9441 20.3067C13.4705 20.5197 12.656 20.776 12.4527 20.776C12.2333 20.776 11.8935 20.5354 11.7721 20.294C11.6591 20.0693 11.6526 19.9819 11.6526 18.6798V17.3032L11.256 17.232C10.4611 17.0892 9.14233 16.7225 8.25766 16.3982C6.83779 15.8777 5.53833 15.1207 4.66017 14.3025L4.31464 13.9806L3.83032 14.3987C3.5639 14.6286 2.86212 15.2403 2.27084 15.7579C1.11171 16.7725 0.961755 16.8566 0.575468 16.7082C0.465616 16.666 0.324689 16.5807 0.262378 16.5187C-0.00421012 16.2535 2.88885e-06 16.342 2.88885e-06 11.0027C2.88885e-06 7.61169 0.0188219 5.93737 0.058211 5.82088C0.206741 5.38173 0.635043 5.12851 1.02576 5.24898C1.15662 5.28932 1.68662 5.71208 2.48918 6.41643C3.18122 7.02372 3.87524 7.631 4.03143 7.76589L4.31536 8.01123L4.68282 7.66297C5.99087 6.42321 8.1704 5.41687 10.7363 4.86789L11.6526 4.67182V2.69331C11.6526 0.772432 11.6561 0.707829 11.7721 0.477223C11.9002 0.222537 12.2417 -0.00855774 12.4768 0.000243527C12.5501 0.0029328 12.7823 0.0457778 12.9929 0.0953461ZM13.2938 3.28446V4.43455L14.9761 4.41176C15.9013 4.39929 16.6892 4.3837 16.7269 4.37716C16.9005 4.34709 15.3878 3.1547 14.6396 2.73175C14.17 2.46631 13.4765 2.14396 13.3622 2.13797C13.3098 2.13528 13.2938 2.40329 13.2938 3.28446ZM12.8015 6.37847C10.632 6.66757 8.76206 7.21429 7.33464 7.97682C6.43892 8.45533 5.89617 8.88133 5.32782 9.552C4.93229 10.0187 4.79804 10.139 4.6343 10.1733C4.24216 10.2555 4.11896 10.1801 2.87836 9.09916C2.22078 8.52616 1.67317 8.06807 1.66146 8.08121C1.64975 8.09429 1.64652 9.41821 1.65435 11.0232L1.66857 13.9414L2.73536 13.0072C4.13701 11.7798 4.12147 11.7909 4.42526 11.7935C4.75958 11.7964 4.84207 11.8558 5.33384 12.4474C6.39182 13.7203 8.30175 14.6935 10.869 15.2679C16.4792 16.523 23.2028 15.3126 25.6196 12.6126C26.5885 11.5301 26.5867 10.4525 25.6142 9.36601C24.2121 7.79945 21.1149 6.62197 17.5336 6.29382C16.6156 6.20972 13.673 6.26234 12.8015 6.37847ZM21.7037 8.86C21.9964 9.02606 22.1564 9.30874 22.1562 9.65939C22.1557 10.3423 21.5352 10.7674 20.9737 10.4698C20.5646 10.2529 20.4201 9.74972 20.6349 9.28906C20.872 8.78018 21.2767 8.61778 21.7037 8.86ZM13.2938 18.0874V18.6381L13.7452 18.3847C13.9934 18.2454 14.3442 18.0181 14.5247 17.8798L14.853 17.6283L14.4153 17.5937C14.1746 17.5747 13.8238 17.554 13.6358 17.5478L13.2938 17.5366V18.0874Z"/>
	</symbol>
	<symbol id="fill" viewBox="0 0 28 21">
		<path fill-rule="evenodd" clip-rule="evenodd" d="M13.1092 0.0979009C14.8858 0.50464 16.9747 1.70187 18.3638 3.10928C18.7125 3.46271 18.7738 3.54744 18.6648 3.52571C18.3904 3.47098 17.8542 3.4325 16.6577 3.38165C15.3281 3.32511 13.663 3.37973 12.4608 3.51931C12.0741 3.56424 11.7355 3.60097 11.7082 3.60097C11.6798 3.60097 11.6587 2.96243 11.6587 2.10855C11.6587 0.392433 11.6724 0.330089 12.0985 0.111585C12.3822 -0.0338474 12.5252 -0.0357631 13.1092 0.0979009ZM17.4333 5.06197C18.0686 5.10406 19.2925 5.25584 20.0058 5.38102C24.2236 6.12132 27.1219 7.80586 27.8672 9.95029C28.0443 10.46 28.0443 11.4111 27.8672 11.9208C27.1242 14.0585 24.175 15.7658 19.9785 16.4875C18.6015 16.7243 17.7644 16.7993 16.143 16.8313C14.554 16.8625 13.3961 16.81 12.1787 16.6515C9.02206 16.2406 6.38999 15.2871 4.74267 13.9576L4.31283 13.6107L3.83023 13.9836C3.56482 14.1887 2.8636 14.7358 2.27202 15.1993C1.11228 16.1079 0.962255 16.1832 0.575767 16.0503C0.465859 16.0125 0.324859 15.9362 0.262515 15.8806C-0.00421104 15.6431 4.14451e-06 15.7224 4.14451e-06 10.9408C4.14451e-06 7.904 0.0188329 6.40458 0.0582425 6.30025C0.206849 5.90698 0.635374 5.68021 1.02629 5.78809C1.15722 5.82422 1.6875 6.20282 2.49047 6.8336C3.18287 7.37745 3.87725 7.9213 4.03352 8.0421L4.3176 8.26181L4.68525 7.94993C6.46262 6.44213 9.7421 5.37249 13.4866 5.07938C14.1269 5.02924 16.7636 5.01758 17.4333 5.06197ZM20.9137 9.06002C20.6971 9.2176 20.5141 9.60989 20.5442 9.85193C20.6376 10.6025 21.6612 10.808 22.0587 10.156C22.2019 9.92112 22.2012 9.55192 22.0571 9.31864C21.824 8.94157 21.2538 8.81261 20.9137 9.06002ZM12.0464 18.293C12.1176 18.3641 14.2468 18.4893 15.4178 18.4912L16.7764 18.4933L16.5028 18.7466C15.5489 19.6292 14.2854 20.3405 13.114 20.6544C12.4998 20.8189 12.3932 20.8199 12.0973 20.6634C11.701 20.4539 11.6587 20.3139 11.6587 19.2151V18.2701H11.8411C11.9415 18.2701 12.0339 18.2804 12.0464 18.293Z"/>
	</symbol>
</svg>
