<svg xmlns="http://www.w3.org/2000/svg">
	<symbol id="outline" viewBox="0 0 28 27">
		<path d="M8.21856 7.2973C8.81725 7.2973 9.30258 7.78736 9.30258 8.39189V10.2162H11.1093C11.708 10.2162 12.1933 10.7063 12.1933 11.3108C12.1933 11.9153 11.708 12.4054 11.1093 12.4054H9.30258V14.2297C9.30258 14.8343 8.81725 15.3243 8.21856 15.3243C7.61987 15.3243 7.13454 14.8343 7.13454 14.2297V12.4054H5.32784C4.72916 12.4054 4.24382 11.9153 4.24382 11.3108C4.24382 10.7063 4.72916 10.2162 5.32784 10.2162H7.13454V8.39189C7.13454 7.78736 7.61987 7.2973 8.21856 7.2973Z"/>
		<path d="M21.2268 13.8649C21.2268 13.0588 20.5797 12.4054 19.7814 12.4054C18.9832 12.4054 18.3361 13.0588 18.3361 13.8649V14.2297C18.3361 15.0358 18.9832 15.6892 19.7814 15.6892C20.5797 15.6892 21.2268 15.0358 21.2268 14.2297V13.8649Z"/>
		<path d="M19.7814 6.93243C20.5797 6.93243 21.2268 7.58585 21.2268 8.39189V8.75676C21.2268 9.56279 20.5797 10.2162 19.7814 10.2162C18.9832 10.2162 18.3361 9.56279 18.3361 8.75676V8.39189C18.3361 7.58585 18.9832 6.93243 19.7814 6.93243Z"/>
		<path d="M24.1175 11.3108C24.1175 12.1168 23.4704 12.7703 22.6722 12.7703H22.3108C21.5126 12.7703 20.8655 12.1168 20.8655 11.3108C20.8655 10.5048 21.5126 9.85135 22.3108 9.85135H22.6722C23.4704 9.85135 24.1175 10.5048 24.1175 11.3108Z"/>
		<path d="M17.2521 12.7703C18.0503 12.7703 18.6974 12.1168 18.6974 11.3108C18.6974 10.5048 18.0503 9.85135 17.2521 9.85135H16.8907C16.0925 9.85135 15.4454 10.5048 15.4454 11.3108C15.4454 12.1168 16.0925 12.7703 16.8907 12.7703H17.2521Z"/>
		<path fill-rule="evenodd" clip-rule="evenodd" d="M15.084 1.09459C15.084 0.490067 14.5987 0 14 0C13.4013 0 12.916 0.490067 12.916 1.09459V3.26463C10.836 3.29333 8.75677 3.40466 6.68326 3.5986L6.20398 3.64343C2.74711 3.96677 0.0852194 6.86539 0.0263888 10.3704L0.00891169 11.4117C-0.0594599 15.4852 0.265719 19.5557 0.979832 23.5654C1.33389 25.5534 3.04713 27 5.04751 27H5.36701C7.15254 27 8.77035 25.9375 9.49427 24.2894L11.0272 20.7994C12.1707 18.1962 15.8293 18.1962 16.9728 20.7994L18.5057 24.2894C19.2297 25.9375 20.8475 27 22.633 27H22.9525C24.9529 27 26.6661 25.5534 27.0202 23.5654C27.7343 19.5557 28.0595 15.4852 27.9911 11.4117L27.9736 10.3704C27.9148 6.86539 25.2529 3.96677 21.796 3.64343L21.3167 3.5986C19.2432 3.40466 17.164 3.29333 15.084 3.26463V1.09459ZM6.88323 5.77846C11.6176 5.33563 16.3824 5.33563 21.1168 5.77846L21.5961 5.82329C23.9518 6.04363 25.7658 8.01895 25.8059 10.4075L25.8234 11.4488C25.8893 15.38 25.5755 19.3083 24.8864 23.1779C24.718 24.1231 23.9035 24.8108 22.9525 24.8108H22.633C21.7048 24.8108 20.8639 24.2585 20.4876 23.4018L18.9546 19.9118C17.0489 15.5731 10.9511 15.5731 9.04537 19.9118L7.51242 23.4018C7.13611 24.2585 6.29515 24.8108 5.36701 24.8108H5.04751C4.09648 24.8108 3.28197 24.1231 3.11364 23.1779C2.42447 19.3083 2.11066 15.38 2.17664 11.4488L2.19412 10.4075C2.23421 8.01895 4.0482 6.04363 6.40395 5.82329L6.88323 5.77846Z"/>
	</symbol>
	<symbol id="fill" viewBox="0 0 28 27">
		<path fill-rule="evenodd" clip-rule="evenodd" d="M14 0C14.6145 0 15.1127 0.49678 15.1127 1.10959V3.67925C17.2365 3.70832 19.3593 3.82063 21.4764 4.01618L21.9684 4.06163C25.3284 4.37199 27.9158 7.15433 27.973 10.5187L27.9909 11.5743C28.0607 15.6795 27.7288 19.7817 27.0001 23.8227C26.6684 25.6618 25.0635 27 23.1897 27H22.8617C21.1756 27 19.6478 26.0091 18.9642 24.4721L17.3906 20.9343C16.0865 18.0023 11.9136 18.0023 10.6094 20.9343L9.03584 24.4721C8.35221 26.0091 6.82444 27 5.13828 27H4.81032C2.93647 27 1.3316 25.6618 0.999936 23.8227C0.271171 19.7817 -0.0606798 15.6795 0.00909453 11.5743L0.0270347 10.5188C0.0842179 7.15433 2.67157 4.37199 6.03165 4.06163L6.52363 4.01618C8.64069 3.82063 10.7635 3.70832 12.8873 3.67925V1.10959C12.8873 0.49678 13.3854 0 14 0ZM21.4183 8.50685C21.4183 7.68977 20.754 7.0274 19.9346 7.0274C19.1152 7.0274 18.451 7.68977 18.451 8.50685V8.87671C18.451 9.69379 19.1152 10.3562 19.9346 10.3562C20.754 10.3562 21.4183 9.69379 21.4183 8.87671V8.50685ZM8.06539 7.39726C8.67994 7.39726 9.17813 7.89404 9.17813 8.50685V10.3562H11.0327C11.6472 10.3562 12.1454 10.8529 12.1454 11.4658C12.1454 12.0786 11.6472 12.5753 11.0327 12.5753H9.17813V14.4247C9.17813 15.0375 8.67994 15.5342 8.06539 15.5342C7.45084 15.5342 6.95265 15.0375 6.95265 14.4247V12.5753H5.09808C4.48354 12.5753 3.98535 12.0786 3.98535 11.4658C3.98535 10.8529 4.48354 10.3562 5.09808 10.3562L6.95265 10.3562V8.50685C6.95265 7.89404 7.45084 7.39726 8.06539 7.39726ZM19.9346 12.5753C20.754 12.5753 21.4183 13.2377 21.4183 14.0548V14.4247C21.4183 15.2417 20.754 15.9041 19.9346 15.9041C19.1152 15.9041 18.451 15.2417 18.451 14.4247V14.0548C18.451 13.2377 19.1152 12.5753 19.9346 12.5753ZM22.9019 12.9452C23.7213 12.9452 24.3856 12.2828 24.3856 11.4658C24.3856 10.6487 23.7213 9.9863 22.9019 9.9863H22.531C21.7116 9.9863 21.0473 10.6487 21.0473 11.4658C21.0473 12.2828 21.7116 12.9452 22.531 12.9452H22.9019ZM18.8219 11.4658C18.8219 12.2828 18.1576 12.9452 17.3382 12.9452H16.9673C16.1479 12.9452 15.4836 12.2828 15.4836 11.4658C15.4836 10.6487 16.1479 9.9863 16.9673 9.9863H17.3382C18.1576 9.9863 18.8219 10.6487 18.8219 11.4658Z"/>
	</symbol>
</svg>
