<svg xmlns="http://www.w3.org/2000/svg">
	<symbol id="outline" viewBox="0 0 28 28">
		<path fill-rule="evenodd" clip-rule="evenodd" d="M14 2.14009L11.0582 5.1839C10.745 5.50788 10.3138 5.69083 9.86321 5.69083H5.69083V9.86321C5.69083 10.3138 5.50788 10.745 5.1839 11.0582L2.14009 14L5.1839 16.9418C5.50788 17.255 5.69083 17.6862 5.69083 18.1368V22.3092H9.86321C10.3138 22.3092 10.745 22.4921 11.0582 22.8161L14 25.8599L16.9418 22.8161C17.255 22.4921 17.6862 22.3092 18.1368 22.3092H22.3092V18.1368C22.3092 17.6862 22.4921 17.255 22.8161 16.9418L25.8599 14L22.8161 11.0582C22.4921 10.745 22.3092 10.3138 22.3092 9.86322V5.69083H18.1368C17.6862 5.69083 17.255 5.50788 16.9418 5.1839L14 2.14009ZM12.8051 0.506927C13.4583 -0.168976 14.5417 -0.168975 15.1949 0.506927L18.2778 3.69663H22.6415C23.5593 3.69663 24.3034 4.44066 24.3034 5.35846V9.72222L27.4931 12.8051C28.169 13.4583 28.169 14.5417 27.4931 15.1949L24.3034 18.2778V22.6415C24.3034 23.5593 23.5593 24.3034 22.6415 24.3034H18.2778L15.1949 27.4931C14.5417 28.169 13.4583 28.169 12.8051 27.4931L9.72221 24.3034H5.35846C4.44066 24.3034 3.69663 23.5593 3.69663 22.6415V18.2778L0.506926 15.1949C-0.168975 14.5417 -0.168976 13.4583 0.506926 12.8051L3.69663 9.72222V5.35846C3.69663 4.44066 4.44066 3.69663 5.35846 3.69663H9.72222L12.8051 0.506927Z"/>
		<path fill-rule="evenodd" clip-rule="evenodd" d="M7.68503 14C7.68503 10.5123 10.5123 7.68503 14 7.68503C17.4877 7.68503 20.315 10.5123 20.315 14C20.315 17.4877 17.4877 20.315 14 20.315C10.5123 20.315 7.68503 17.4877 7.68503 14ZM14 9.67923C11.6137 9.67923 9.67923 11.6137 9.67923 14C9.67923 16.3863 11.6137 18.3208 14 18.3208C16.3863 18.3208 18.3208 16.3863 18.3208 14C18.3208 11.6137 16.3863 9.67923 14 9.67923Z"/>
	</symbol>
	<symbol id="fill" viewBox="0 0 28 28">
		<path d="M9.62089 14C9.62089 11.5815 11.5815 9.6209 14 9.6209C16.4185 9.6209 18.3791 11.5815 18.3791 14C18.3791 16.4185 16.4185 18.3791 14 18.3791C11.5815 18.3791 9.62089 16.4185 9.62089 14Z"/>
		<path fill-rule="evenodd" clip-rule="evenodd" d="M13.2734 0.308263C13.6706 -0.102754 14.3294 -0.102754 14.7266 0.308263L18.1926 3.89439H23.095C23.6532 3.89439 24.1056 4.34683 24.1056 4.90495V9.80738L27.6917 13.2734C28.1028 13.6706 28.1028 14.3294 27.6917 14.7266L24.1056 18.1926V23.095C24.1056 23.6532 23.6532 24.1056 23.095 24.1056H18.1926L14.7266 27.6917C14.3294 28.1028 13.6706 28.1028 13.2734 27.6917L9.80737 24.1056H4.90495C4.34683 24.1056 3.89439 23.6532 3.89439 23.095V18.1926L0.308263 14.7266C-0.102754 14.3294 -0.102755 13.6706 0.308262 13.2734L3.89439 9.80737V4.90495C3.89439 4.34683 4.34683 3.89439 4.90495 3.89439H9.80737L13.2734 0.308263ZM14 7.59978C10.4652 7.59978 7.59977 10.4653 7.59977 14C7.59977 17.5347 10.4652 20.4002 14 20.4002C17.5347 20.4002 20.4002 17.5347 20.4002 14C20.4002 10.4653 17.5347 7.59978 14 7.59978Z"/>
	</symbol>
</svg>
