<svg xmlns="http://www.w3.org/2000/svg">
	<symbol id="outline" viewBox="0 0 28 28">
		<path d="M10.8 7.73157C10.8 7.43918 10.4969 7.24736 10.2429 7.39212C7.94762 8.69998 6.4 11.1693 6.4 14C6.4 18.1974 9.80264 21.6 14 21.6C18.1974 21.6 21.6 18.1974 21.6 14C21.6 11.1693 20.0524 8.69998 17.7571 7.39212C17.5031 7.24736 17.2 7.43918 17.2 7.73157V9.70591C17.2 9.829 17.2573 9.94451 17.3514 10.0239C18.4819 10.9778 19.2 12.405 19.2 14C19.2 16.8719 16.8719 19.2 14 19.2C11.1281 19.2 8.8 16.8719 8.8 14C8.8 12.405 9.5181 10.9778 10.6486 10.0239C10.7427 9.94451 10.8 9.82899 10.8 9.70591V7.73157Z"/>
		<path d="M15.2 6C15.2 5.33726 14.6627 4.8 14 4.8C13.3373 4.8 12.8 5.33726 12.8 6V14C12.8 14.6627 13.3373 15.2 14 15.2C14.6627 15.2 15.2 14.6627 15.2 14V6Z"/>
		<path fill-rule="evenodd" clip-rule="evenodd" d="M0 14C0 6.26801 6.26801 0 14 0C21.732 0 28 6.26801 28 14C28 21.732 21.732 28 14 28C6.26801 28 0 21.732 0 14ZM14 2.4C7.5935 2.4 2.4 7.5935 2.4 14C2.4 20.4065 7.5935 25.6 14 25.6C20.4065 25.6 25.6 20.4065 25.6 14C25.6 7.5935 20.4065 2.4 14 2.4Z"/>
	</symbol>
	<symbol id="fill" viewBox="0 0 28 28">
		<path fill-rule="evenodd" clip-rule="evenodd" d="M0 14C0 6.26801 6.26801 0 14 0C21.732 0 28 6.26801 28 14C28 21.732 21.732 28 14 28C6.26801 28 0 21.732 0 14ZM14 4.8C14.6627 4.8 15.2 5.33726 15.2 6V14C15.2 14.6627 14.6627 15.2 14 15.2C13.3373 15.2 12.8 14.6627 12.8 14V6C12.8 5.33726 13.3373 4.8 14 4.8ZM10.8 7.73157C10.8 7.43918 10.4969 7.24736 10.2429 7.39212C7.94762 8.69998 6.4 11.1693 6.4 14C6.4 18.1974 9.80264 21.6 14 21.6C18.1974 21.6 21.6 18.1974 21.6 14C21.6 11.1693 20.0524 8.69998 17.7571 7.39212C17.5031 7.24736 17.2 7.43918 17.2 7.73157V9.70591C17.2 9.829 17.2573 9.94451 17.3514 10.0239C18.4819 10.9778 19.2 12.405 19.2 14C19.2 16.8719 16.8719 19.2 14 19.2C11.1281 19.2 8.8 16.8719 8.8 14C8.8 12.405 9.5181 10.9778 10.6486 10.0239C10.7427 9.94451 10.8 9.829 10.8 9.70591V7.73157Z"/>
	</symbol>
</svg>
